<?xml version="1.0" encoding="UTF-8" standalone="no"?><!DOCTYPE svg PUBLIC "-//W3C//DTD SVG 1.1//EN" "http://www.w3.org/Graphics/SVG/1.1/DTD/svg11.dtd"><svg width="100%" height="100%" viewBox="0 0 320 48" version="1.1" xmlns="http://www.w3.org/2000/svg" xmlns:xlink="http://www.w3.org/1999/xlink" xml:space="preserve" xmlns:serif="http://www.serif.com/" style="fill-rule:evenodd;clip-rule:evenodd;stroke-linejoin:round;stroke-miterlimit:2;"><rect id="Donate" x="0" y="0" width="320" height="48" style="fill:none;"/><path d="M320,8c0,-4.415 -3.585,-8 -8,-8l-304,0c-4.415,0 -8,3.585 -8,8l0,32c0,4.415 3.585,8 8,8l304,0c4.415,0 8,-3.585 8,-8l0,-32Z" style="fill:#1b1c22;"/><path d="M27.579,23.032l-11.579,-5.789l0,-5.243c0,-0 16.056,8.028 21.903,10.951c0.397,0.199 0.648,0.605 0.648,1.049c-0,0.444 -0.251,0.85 -0.648,1.049l-5.903,2.951l8,8l-6.632,0l-5.789,-5.789l-11.579,5.789l0,-5.243l11.579,-5.789l-0,-1.936Z" style="fill:#eb4747;"/><path d="M64.12,23.168c0,1.427 -0.29,2.67 -0.87,3.73c-0.58,1.06 -1.427,1.883 -2.54,2.47c-1.113,0.587 -2.443,0.88 -3.99,0.88l-4.72,0l0,-14.12l4.72,0c1.547,0 2.877,0.29 3.99,0.87c1.113,0.58 1.96,1.397 2.54,2.45c0.58,1.053 0.87,2.293 0.87,3.72Zm-7.58,5.02c1.693,0 2.993,-0.44 3.9,-1.32c0.907,-0.88 1.36,-2.113 1.36,-3.7c0,-1.587 -0.453,-2.82 -1.36,-3.7c-0.907,-0.88 -2.207,-1.32 -3.9,-1.32l-2.26,0l0,10.04l2.26,0Z" style="fill:#fff;fill-rule:nonzero;"/><path d="M71.46,19.088c1.067,0 2.027,0.227 2.88,0.68c0.853,0.453 1.52,1.107 2,1.96c0.48,0.853 0.72,1.853 0.72,3c-0,1.16 -0.24,2.167 -0.72,3.02c-0.48,0.853 -1.147,1.507 -2,1.96c-0.853,0.453 -1.813,0.68 -2.88,0.68c-1.067,-0 -2.023,-0.227 -2.87,-0.68c-0.847,-0.453 -1.513,-1.11 -2,-1.97c-0.487,-0.86 -0.73,-1.863 -0.73,-3.01c-0,-1.147 0.243,-2.147 0.73,-3c0.487,-0.853 1.153,-1.507 2,-1.96c0.847,-0.453 1.803,-0.68 2.87,-0.68Zm-0,1.98c-0.587,0 -1.127,0.133 -1.62,0.4c-0.493,0.267 -0.89,0.677 -1.19,1.23c-0.3,0.553 -0.45,1.23 -0.45,2.03c-0,0.813 0.15,1.493 0.45,2.04c0.3,0.547 0.697,0.953 1.19,1.22c0.493,0.267 1.033,0.4 1.62,0.4c0.587,0 1.127,-0.133 1.62,-0.4c0.493,-0.267 0.89,-0.673 1.19,-1.22c0.3,-0.547 0.45,-1.227 0.45,-2.04c-0,-0.8 -0.15,-1.477 -0.45,-2.03c-0.3,-0.553 -0.697,-0.963 -1.19,-1.23c-0.493,-0.267 -1.033,-0.4 -1.62,-0.4Z" style="fill:#fff;fill-rule:nonzero;"/><path d="M85.42,19.048c1.28,0 2.307,0.413 3.08,1.24c0.773,0.827 1.16,2.007 1.16,3.54l0,6.42l-2.28,0l0,-6.18c0,-0.987 -0.253,-1.75 -0.76,-2.29c-0.507,-0.54 -1.2,-0.81 -2.08,-0.81c-0.907,0 -1.633,0.29 -2.18,0.87c-0.547,0.58 -0.82,1.43 -0.82,2.55l0,5.86l-2.28,0l0,-11.02l2.28,0l0,2.42c0.293,-0.827 0.787,-1.467 1.48,-1.92c0.693,-0.453 1.493,-0.68 2.4,-0.68Z" style="fill:#fff;fill-rule:nonzero;"/><path d="M96.74,19.088c1,0 1.853,0.247 2.56,0.74c0.707,0.493 1.207,1.147 1.5,1.96l0,-2.56l2.28,0l0,11.02l-2.28,0l0,-2.56c-0.293,0.813 -0.793,1.467 -1.5,1.96c-0.707,0.493 -1.56,0.74 -2.56,0.74c-0.96,-0 -1.817,-0.227 -2.57,-0.68c-0.753,-0.453 -1.343,-1.107 -1.77,-1.96c-0.427,-0.853 -0.64,-1.86 -0.64,-3.02c0,-1.147 0.213,-2.147 0.64,-3c0.427,-0.853 1.017,-1.507 1.77,-1.96c0.753,-0.453 1.61,-0.68 2.57,-0.68Zm0.7,2c-1.013,0 -1.823,0.323 -2.43,0.97c-0.607,0.647 -0.91,1.537 -0.91,2.67c0,1.133 0.303,2.023 0.91,2.67c0.607,0.647 1.417,0.97 2.43,0.97c0.64,0 1.213,-0.15 1.72,-0.45c0.507,-0.3 0.907,-0.723 1.2,-1.27c0.293,-0.547 0.44,-1.187 0.44,-1.92c0,-0.72 -0.147,-1.357 -0.44,-1.91c-0.293,-0.553 -0.693,-0.98 -1.2,-1.28c-0.507,-0.3 -1.08,-0.45 -1.72,-0.45Z" style="fill:#fff;fill-rule:nonzero;"/><path d="M111.36,28.268l0,1.98l-1.4,0c-1.173,0 -2.063,-0.283 -2.67,-0.85c-0.607,-0.567 -0.91,-1.51 -0.91,-2.83l0,-5.4l-1.58,0l0,-1.94l1.58,0l0,-2.74l2.3,0l0,2.74l2.66,0l0,1.94l-2.66,0l0,5.44c0,0.627 0.117,1.06 0.35,1.3c0.233,0.24 0.643,0.36 1.23,0.36l1.1,0Z" style="fill:#fff;fill-rule:nonzero;"/><path d="M123.74,24.208c0,0.373 -0.027,0.7 -0.08,0.98l-8.48,0c0.04,1.133 0.353,1.973 0.94,2.52c0.587,0.547 1.313,0.82 2.18,0.82c0.76,0 1.403,-0.193 1.93,-0.58c0.527,-0.387 0.85,-0.9 0.97,-1.54l2.44,0c-0.147,0.773 -0.453,1.46 -0.92,2.06c-0.467,0.6 -1.073,1.07 -1.82,1.41c-0.747,0.34 -1.58,0.51 -2.5,0.51c-1.067,-0 -2.01,-0.227 -2.83,-0.68c-0.82,-0.453 -1.463,-1.107 -1.93,-1.96c-0.467,-0.853 -0.7,-1.86 -0.7,-3.02c0,-1.147 0.233,-2.147 0.7,-3c0.467,-0.853 1.11,-1.507 1.93,-1.96c0.82,-0.453 1.763,-0.68 2.83,-0.68c1.08,0 2.023,0.223 2.83,0.67c0.807,0.447 1.427,1.06 1.86,1.84c0.433,0.78 0.65,1.65 0.65,2.61Zm-2.3,-0.06c0.027,-0.72 -0.097,-1.323 -0.37,-1.81c-0.273,-0.487 -0.647,-0.847 -1.12,-1.08c-0.473,-0.233 -0.99,-0.35 -1.55,-0.35c-0.893,0 -1.64,0.273 -2.24,0.82c-0.6,0.547 -0.927,1.353 -0.98,2.42l6.26,0Z" style="fill:#fff;fill-rule:nonzero;"/><path d="M136.16,28.268l0,1.98l-1.4,0c-1.173,0 -2.063,-0.283 -2.67,-0.85c-0.607,-0.567 -0.91,-1.51 -0.91,-2.83l0,-5.4l-1.58,0l0,-1.94l1.58,0l0,-2.74l2.3,0l0,2.74l2.66,0l0,1.94l-2.66,0l0,5.44c0,0.627 0.117,1.06 0.35,1.3c0.233,0.24 0.643,0.36 1.23,0.36l1.1,0Z" style="fill:#fff;fill-rule:nonzero;"/><path d="M143.34,19.088c1.067,0 2.027,0.227 2.88,0.68c0.853,0.453 1.52,1.107 2,1.96c0.48,0.853 0.72,1.853 0.72,3c0,1.16 -0.24,2.167 -0.72,3.02c-0.48,0.853 -1.147,1.507 -2,1.96c-0.853,0.453 -1.813,0.68 -2.88,0.68c-1.067,-0 -2.023,-0.227 -2.87,-0.68c-0.847,-0.453 -1.513,-1.11 -2,-1.97c-0.487,-0.86 -0.73,-1.863 -0.73,-3.01c0,-1.147 0.243,-2.147 0.73,-3c0.487,-0.853 1.153,-1.507 2,-1.96c0.847,-0.453 1.803,-0.68 2.87,-0.68Zm0,1.98c-0.587,0 -1.127,0.133 -1.62,0.4c-0.493,0.267 -0.89,0.677 -1.19,1.23c-0.3,0.553 -0.45,1.23 -0.45,2.03c0,0.813 0.15,1.493 0.45,2.04c0.3,0.547 0.697,0.953 1.19,1.22c0.493,0.267 1.033,0.4 1.62,0.4c0.587,0 1.127,-0.133 1.62,-0.4c0.493,-0.267 0.89,-0.673 1.19,-1.22c0.3,-0.547 0.45,-1.227 0.45,-2.04c0,-0.8 -0.15,-1.477 -0.45,-2.03c-0.3,-0.553 -0.697,-0.963 -1.19,-1.23c-0.493,-0.267 -1.033,-0.4 -1.62,-0.4Z" style="fill:#fff;fill-rule:nonzero;"/><path d="M157.24,16.128l4.06,11.68l4.08,-11.68l2.48,0l-5.1,14.12l-2.92,0l-5.08,-14.12l2.48,0Z" style="fill:#fff;fill-rule:nonzero;"/><path d="M169.24,16.028c0,-0.387 0.133,-0.707 0.4,-0.96c0.267,-0.253 0.62,-0.38 1.06,-0.38c0.44,0 0.797,0.127 1.07,0.38c0.273,0.253 0.41,0.573 0.41,0.96c0,0.387 -0.137,0.7 -0.41,0.94c-0.273,0.24 -0.63,0.36 -1.07,0.36c-0.44,0 -0.793,-0.12 -1.06,-0.36c-0.267,-0.24 -0.4,-0.553 -0.4,-0.94Zm2.6,3.2l0,11.02l-2.28,0l0,-11.02l2.28,0Z" style="fill:#fff;fill-rule:nonzero;"/><path d="M178.22,19.088c1.293,0 2.33,0.33 3.11,0.99c0.78,0.66 1.257,1.543 1.43,2.65l-2.16,0c-0.093,-0.6 -0.35,-1.083 -0.77,-1.45c-0.42,-0.367 -0.977,-0.55 -1.67,-0.55c-0.573,0 -1.017,0.137 -1.33,0.41c-0.313,0.273 -0.47,0.643 -0.47,1.11c0,0.347 0.113,0.627 0.34,0.84c0.227,0.213 0.51,0.38 0.85,0.5c0.34,0.12 0.823,0.253 1.45,0.4c0.827,0.187 1.497,0.38 2.01,0.58c0.513,0.2 0.953,0.517 1.32,0.95c0.367,0.433 0.55,1.023 0.55,1.77c0,0.92 -0.35,1.667 -1.05,2.24c-0.7,0.573 -1.643,0.86 -2.83,0.86c-1.373,-0 -2.483,-0.32 -3.33,-0.96c-0.847,-0.64 -1.357,-1.533 -1.53,-2.68l2.22,0c0.067,0.6 0.333,1.087 0.8,1.46c0.467,0.373 1.08,0.56 1.84,0.56c0.547,0 0.977,-0.143 1.29,-0.43c0.313,-0.287 0.47,-0.65 0.47,-1.09c0,-0.387 -0.12,-0.693 -0.36,-0.92c-0.24,-0.227 -0.54,-0.403 -0.9,-0.53c-0.36,-0.127 -0.853,-0.257 -1.48,-0.39c-0.8,-0.187 -1.45,-0.373 -1.95,-0.56c-0.5,-0.187 -0.927,-0.49 -1.28,-0.91c-0.353,-0.42 -0.53,-0.99 -0.53,-1.71c0,-0.933 0.35,-1.69 1.05,-2.27c0.7,-0.58 1.67,-0.87 2.91,-0.87Z" style="fill:#fff;fill-rule:nonzero;"/><path d="M191.32,19.048c1.28,0 2.307,0.413 3.08,1.24c0.773,0.827 1.16,2.007 1.16,3.54l0,6.42l-2.28,0l0,-6.18c0,-0.987 -0.253,-1.75 -0.76,-2.29c-0.507,-0.54 -1.2,-0.81 -2.08,-0.81c-0.907,0 -1.633,0.29 -2.18,0.87c-0.547,0.58 -0.82,1.43 -0.82,2.55l0,5.86l-2.28,0l0,-14.8l2.28,0l0,6.2c0.293,-0.827 0.787,-1.467 1.48,-1.92c0.693,-0.453 1.493,-0.68 2.4,-0.68Z" style="fill:#fff;fill-rule:nonzero;"/><path d="M204.38,19.048c1.28,0 2.307,0.413 3.08,1.24c0.773,0.827 1.16,2.007 1.16,3.54l0,6.42l-2.28,0l0,-6.18c0,-0.987 -0.253,-1.75 -0.76,-2.29c-0.507,-0.54 -1.2,-0.81 -2.08,-0.81c-0.907,0 -1.633,0.29 -2.18,0.87c-0.547,0.58 -0.82,1.43 -0.82,2.55l0,5.86l-2.28,0l0,-11.02l2.28,0l0,2.42c0.293,-0.827 0.787,-1.467 1.48,-1.92c0.693,-0.453 1.493,-0.68 2.4,-0.68Z" style="fill:#fff;fill-rule:nonzero;"/><path d="M221.44,19.228l0,11.02l-2.3,0l0,-2.4c-0.28,0.813 -0.767,1.443 -1.46,1.89c-0.693,0.447 -1.5,0.67 -2.42,0.67c-1.28,-0 -2.307,-0.413 -3.08,-1.24c-0.773,-0.827 -1.16,-2.007 -1.16,-3.54l0,-6.4l2.28,0l0,6.16c0,1 0.253,1.77 0.76,2.31c0.507,0.54 1.2,0.81 2.08,0.81c0.907,0 1.633,-0.293 2.18,-0.88c0.547,-0.587 0.82,-1.44 0.82,-2.56l0,-5.84l2.3,0Z" style="fill:#fff;fill-rule:nonzero;"/><path d="M236.28,30.248l-3.52,-5.64l-1.62,0l0,5.64l-2.28,0l0,-14.12l4.98,0c1.613,0 2.837,0.393 3.67,1.18c0.833,0.787 1.25,1.827 1.25,3.12c0,1.107 -0.31,2.013 -0.93,2.72c-0.62,0.707 -1.517,1.16 -2.69,1.36l3.7,5.74l-2.56,0Zm-5.14,-7.26l2.52,0c1.84,0 2.76,-0.813 2.76,-2.44c0,-0.773 -0.223,-1.377 -0.67,-1.81c-0.447,-0.433 -1.143,-0.65 -2.09,-0.65l-2.52,0l0,4.9Z" style="fill:#fff;fill-rule:nonzero;"/><path d="M245.24,19.088c1,0 1.853,0.247 2.56,0.74c0.707,0.493 1.207,1.147 1.5,1.96l0,-2.56l2.28,0l0,11.02l-2.28,0l0,-2.56c-0.293,0.813 -0.793,1.467 -1.5,1.96c-0.707,0.493 -1.56,0.74 -2.56,0.74c-0.96,-0 -1.817,-0.227 -2.57,-0.68c-0.753,-0.453 -1.343,-1.107 -1.77,-1.96c-0.427,-0.853 -0.64,-1.86 -0.64,-3.02c0,-1.147 0.213,-2.147 0.64,-3c0.427,-0.853 1.017,-1.507 1.77,-1.96c0.753,-0.453 1.61,-0.68 2.57,-0.68Zm0.7,2c-1.013,0 -1.823,0.323 -2.43,0.97c-0.607,0.647 -0.91,1.537 -0.91,2.67c0,1.133 0.303,2.023 0.91,2.67c0.607,0.647 1.417,0.97 2.43,0.97c0.64,0 1.213,-0.15 1.72,-0.45c0.507,-0.3 0.907,-0.723 1.2,-1.27c0.293,-0.547 0.44,-1.187 0.44,-1.92c0,-0.72 -0.147,-1.357 -0.44,-1.91c-0.293,-0.553 -0.693,-0.98 -1.2,-1.28c-0.507,-0.3 -1.08,-0.45 -1.72,-0.45Z" style="fill:#fff;fill-rule:nonzero;"/><path d="M258.74,19.088c1,0 1.853,0.247 2.56,0.74c0.707,0.493 1.207,1.147 1.5,1.96l0,-2.56l2.28,0l0,11.14c0,1.027 -0.21,1.937 -0.63,2.73c-0.42,0.793 -1.023,1.417 -1.81,1.87c-0.787,0.453 -1.72,0.68 -2.8,0.68c-1.547,-0 -2.797,-0.367 -3.75,-1.1c-0.953,-0.733 -1.55,-1.727 -1.79,-2.98l2.26,0c0.187,0.653 0.547,1.163 1.08,1.53c0.533,0.367 1.213,0.55 2.04,0.55c0.907,-0 1.653,-0.28 2.24,-0.84c0.587,-0.56 0.88,-1.373 0.88,-2.44l0,-2.68c-0.293,0.813 -0.793,1.467 -1.5,1.96c-0.707,0.493 -1.56,0.74 -2.56,0.74c-0.96,-0 -1.817,-0.227 -2.57,-0.68c-0.753,-0.453 -1.343,-1.107 -1.77,-1.96c-0.427,-0.853 -0.64,-1.86 -0.64,-3.02c0,-1.147 0.213,-2.147 0.64,-3c0.427,-0.853 1.017,-1.507 1.77,-1.96c0.753,-0.453 1.61,-0.68 2.57,-0.68Zm0.7,2c-1.013,0 -1.823,0.323 -2.43,0.97c-0.607,0.647 -0.91,1.537 -0.91,2.67c0,1.133 0.303,2.023 0.91,2.67c0.607,0.647 1.417,0.97 2.43,0.97c0.64,0 1.213,-0.15 1.72,-0.45c0.507,-0.3 0.907,-0.723 1.2,-1.27c0.293,-0.547 0.44,-1.187 0.44,-1.92c0,-0.72 -0.147,-1.357 -0.44,-1.91c-0.293,-0.553 -0.693,-0.98 -1.2,-1.28c-0.507,-0.3 -1.08,-0.45 -1.72,-0.45Z" style="fill:#fff;fill-rule:nonzero;"/><path d="M273.98,19.048c1.28,0 2.307,0.413 3.08,1.24c0.773,0.827 1.16,2.007 1.16,3.54l0,6.42l-2.28,0l0,-6.18c0,-0.987 -0.253,-1.75 -0.76,-2.29c-0.507,-0.54 -1.2,-0.81 -2.08,-0.81c-0.907,0 -1.633,0.29 -2.18,0.87c-0.547,0.58 -0.82,1.43 -0.82,2.55l0,5.86l-2.28,0l0,-14.8l2.28,0l0,6.2c0.293,-0.827 0.787,-1.467 1.48,-1.92c0.693,-0.453 1.493,-0.68 2.4,-0.68Z" style="fill:#fff;fill-rule:nonzero;"/><path d="M285.3,19.088c1,0 1.853,0.247 2.56,0.74c0.707,0.493 1.207,1.147 1.5,1.96l0,-2.56l2.28,0l0,11.02l-2.28,0l0,-2.56c-0.293,0.813 -0.793,1.467 -1.5,1.96c-0.707,0.493 -1.56,0.74 -2.56,0.74c-0.96,-0 -1.817,-0.227 -2.57,-0.68c-0.753,-0.453 -1.343,-1.107 -1.77,-1.96c-0.427,-0.853 -0.64,-1.86 -0.64,-3.02c-0,-1.147 0.213,-2.147 0.64,-3c0.427,-0.853 1.017,-1.507 1.77,-1.96c0.753,-0.453 1.61,-0.68 2.57,-0.68Zm0.7,2c-1.013,0 -1.823,0.323 -2.43,0.97c-0.607,0.647 -0.91,1.537 -0.91,2.67c0,1.133 0.303,2.023 0.91,2.67c0.607,0.647 1.417,0.97 2.43,0.97c0.64,0 1.213,-0.15 1.72,-0.45c0.507,-0.3 0.907,-0.723 1.2,-1.27c0.293,-0.547 0.44,-1.187 0.44,-1.92c0,-0.72 -0.147,-1.357 -0.44,-1.91c-0.293,-0.553 -0.693,-0.98 -1.2,-1.28c-0.507,-0.3 -1.08,-0.45 -1.72,-0.45Z" style="fill:#fff;fill-rule:nonzero;"/><path d="M298.9,27.888l3.12,-8.66l2.44,0l-4.2,11.02l-2.76,0l-4.2,-11.02l2.44,0l3.16,8.66Z" style="fill:#fff;fill-rule:nonzero;"/></svg>