<svg xmlns="http://www.w3.org/2000/svg" fill="#10b981" fill-rule="evenodd" stroke-linejoin="round" stroke-miterlimit="2" clip-rule="evenodd" viewBox="0 0 512 412"><path d="M115.96 384.67a38.44 38.44 0 0036.57 26.67 38.41 38.41 0 000-76.8 38.44 38.44 0 00-35.81 24.53H25.6V26.27h460.8v332.8h-93.26a38.43 38.43 0 00-35.81-24.53 38.41 38.41 0 000 76.8 38.44 38.44 0 0036.57-26.67h105.3a12.8 12.8 0 0012.8-12.8V13.47A12.8 12.8 0 00499.2.67H12.8A12.8 12.8 0 000 13.47v358.4a12.8 12.8 0 0012.8 12.8zm138.97-50.13a38.41 38.41 0 000 76.8 38.41 38.41 0 000-76.8zm-102.4 25.6a12.8 12.8 0 11-.01 25.6 12.8 12.8 0 01.01-25.6zm102.4 0a12.8 12.8 0 11-.01 25.6 12.8 12.8 0 01.01-25.6zm102.4 0a12.8 12.8 0 11-.01 25.6 12.8 12.8 0 01.01-25.6zM153.6 128.67c-35.32 0-64 28.67-64 64 0 35.32 28.68 64 64 64s64-28.68 64-64c0-35.33-28.68-64-64-64zm204.8 76.8h-89.6a12.8 12.8 0 000 25.6h89.6a12.8 12.8 0 000-25.6zm-204.8-51.2a38.41 38.41 0 010 76.8 38.41 38.41 0 010-76.8zm115.2 25.6h139.93a12.8 12.8 0 000-25.6H268.8a12.8 12.8 0 000 25.6z"/></svg>