<svg version="1" xmlns="http://www.w3.org/2000/svg" width="933.333" height="933.333" viewBox="0 0 700.000000 700.000000"><path d="M10.4 71c-4.6 2-7.6 5.4-9.2 10C.3 83.5 0 146.9 0 332.2 0 599.9-.3 583.7 5.1 589c5.7 5.4 3.6 5.3 81.5 5.3h72.1l1.3 3.6c4.1 11.4 14.9 22.4 27.4 28.1 14.1 6.4 29.5 6.1 44.1-1 17.5-8.4 28.4-25.1 29.1-44.5.6-15.7-4.2-28-14.9-38.8-16.6-16.9-41.1-20.6-62.1-9.4-7.8 4.1-17.4 13.6-21.1 20.9-1.7 3.2-3.7 5.8-4.5 5.9H41.8L35 559V104.3h630v227.4c0 181.1-.3 227.3-1.2 227.4-9.9.5-126.3-.2-126.5-.8-.2-.5-2-3.7-4.1-7.2-14.5-24.6-48-32.6-72.5-17.4-5.5 3.5-14.1 12.1-17 17.3-5.7 9.9-7.1 15.7-7.1 27.5.1 9 .5 12.1 2.4 17 5.3 13.6 14.1 23.4 26.5 29.4 8.3 4.1 12.5 5.2 21.1 5.6 20.7 1 40.7-11.3 49.6-30.6l2.6-5.6h147.9l4-2.2c2.2-1.3 5.2-4.1 6.6-6.4l2.7-4.1v-249c0-242.7-.1-249.2-1.9-253.3-1.2-2.6-3.5-5.2-6.2-7l-4.3-2.8-336.6-.1C31.1 69.2 14.1 69.3 10.4 71zm206.5 492.1c4.4 2.7 5.3 3.7 7.4 8.1 2.1 4.5 2.2 8.8.2 13.5-2.9 6.8-7.5 10.2-14.8 10.7-14.3 1.2-23.4-14.5-15.6-27 4.1-6.8 15.9-9.5 22.8-5.3zm280 0c13.2 7.4 11.1 27.8-3.4 31.8-16.3 4.5-28.9-13.9-18.7-27.2 1.5-1.9 4.1-4.2 5.7-5.1 4.4-2.2 12-2 16.4.5z"/><path d="M201.8 244.5c-.2.2-2.6.5-5.4.9-6.9.8-17.6 4.2-24.9 7.8-46.6 23.5-62.9 80.7-35.7 124.8 12.2 19.6 35.4 35.8 56.7 39.5 1.7.2 4.1.7 5.5 1 1.4.3 6.8.6 12.1.6 27.9 0 53.1-12.8 70-35.3 20.7-27.8 23.1-63.9 6.1-94.8-1.9-3.6-3.8-6.7-4.1-7-.3-.3-1.8-2.2-3.4-4.2-3.7-5-14.8-15.7-16.9-16.4-1-.3-1.8-.9-1.8-1.4 0-1.6-20.6-11.1-28.5-13.1-6.6-1.7-28.5-3.4-29.7-2.4zm21.3 36.5c25.6 6.9 42.5 32 38.8 57.5-1.2 7.7-1.6 9.2-4.4 15.2-5.7 12.5-16.9 22.8-29.7 27.3-35.1 12.2-70.3-13.1-70-50.5.1-13.6 5.4-25.9 15.7-36 12.8-12.7 32.5-18.1 49.6-13.5zM361.6 280.5c-2 .7-4.7 2.1-5.8 3.2-2.8 2.5-5.8 9.1-5.8 13.1 0 7.9 6.4 15.7 13.9 16.8 2.5.4 48.3.7 101.7.7h97.2l4.3-2.4c12.9-7.1 11.7-25.5-2.1-31.2-4.9-2.1-197.5-2.2-203.4-.2zM360.3 351c-12.1 5.4-13.6 22.1-2.7 30.3 1.4 1 4.6 2.1 7.2 2.5 2.6.4 32.6.7 66.8.7 60.4-.1 62.1-.2 66-2.1 5-2.7 9.2-8.7 9.7-14.1.7-7.6-4.3-15.4-11.6-17.9-2.2-.8-23.2-1.1-67.3-1.2-59.3 0-64.4.1-68.1 1.8zM331.9 528.7c-22.2 7.4-36.6 28.2-35.5 51.5.4 8.9 1.8 14.4 5.7 22.2 3.2 6.2 3.3 6.4 10.7 13.9 5.4 5.6 18 12.1 25.9 13.5 11.4 2 22 .4 32.8-4.8 8.4-4.2 13.4-8.2 19-15.6 12-15.7 13.7-37.8 4.3-55.8-4-7.6-14.6-18.2-21.8-21.8-12.9-6.4-28.1-7.5-41.1-3.1zm23.2 33.5c4.8 2.6 7 4.6 8.9 8.4 6.2 12.1-3.6 26.2-17.4 24.9-12.7-1.3-19.7-16.2-12.6-27 4.2-6.4 14.8-9.6 21.1-6.3z"/></svg>