<?xml version="1.0" standalone="no"?>
<!DOCTYPE svg PUBLIC "-//W3C//DTD SVG 20010904//EN"
 "http://www.w3.org/TR/2001/REC-SVG-20010904/DTD/svg10.dtd">
<svg version="1.0" xmlns="http://www.w3.org/2000/svg"
 width="800.000000pt" height="800.000000pt" viewBox="0 0 800.000000 800.000000"
 preserveAspectRatio="xMidYMid meet">
<metadata>
Created by potrace 1.11, written by Peter Selinger 2001-2013
</metadata>
<g transform="translate(0.000000,800.000000) scale(0.100000,-0.100000)"
fill="#000000" stroke="none">
<path d="M130 6987 c-49 -23 -85 -55 -108 -97 l-22 -42 3 -2656 c2 -2478 3
-2659 19 -2686 22 -39 77 -85 108 -92 14 -3 34 -9 45 -12 11 -3 25 -5 30 -3 6
2 24 2 40 2 91 -2 161 -3 170 -1 6 1 15 1 20 0 6 -1 39 -1 75 0 36 1 76 1 90
0 108 -5 132 -5 136 2 3 5 10 6 15 2 6 -3 40 -5 77 -4 37 1 78 1 92 0 106 -5
132 -5 136 1 2 3 21 4 41 0 21 -3 58 -4 83 -1 25 3 57 2 72 -2 15 -3 30 -2 34
3 3 5 9 7 14 4 10 -6 228 -10 234 -4 3 2 25 3 50 1 35 -3 47 -9 52 -24 3 -11
21 -45 39 -75 122 -203 315 -308 548 -299 320 12 570 272 570 596 0 82 -24
205 -43 224 -6 6 -10 17 -10 24 0 24 -70 123 -121 174 -130 127 -261 178 -444
173 -187 -5 -346 -85 -455 -230 -38 -51 -84 -132 -85 -150 0 -14 -48 -16 -322
-14 -94 0 -177 -2 -182 -6 -6 -3 -11 -1 -11 5 0 6 -4 9 -8 6 -9 -6 -66 -7
-199 -5 -50 1 -96 -2 -102 -5 -6 -4 -11 -2 -11 4 0 6 -4 9 -8 6 -9 -5 -47 -6
-202 -6 -194 -1 -203 1 -191 33 5 12 5 34 1 49 -5 14 -6 29 -4 31 8 8 10 97 2
97 -3 0 -4 8 -2 18 6 26 10 142 4 142 -4 0 -4 116 0 130 3 7 0 138 -3 183 -1
21 0 43 4 49 4 5 3 25 -1 44 -4 18 -5 36 -2 39 3 3 5 40 3 83 -3 96 -3 110 1
200 2 39 0 72 -4 72 -3 0 -4 8 -2 18 7 29 9 142 3 142 -4 0 -3 17 1 38 3 20 3
49 -1 63 -3 15 -3 33 2 40 4 7 5 17 3 21 -5 8 -8 102 -4 123 1 6 1 44 0 85 -2
78 -1 137 3 180 1 14 -1 37 -5 52 -3 15 -3 30 2 33 5 3 5 18 0 34 -4 16 -6 32
-4 34 8 8 10 97 2 97 -3 0 -4 8 -2 18 6 26 10 142 4 142 -4 0 -4 116 0 130 3
7 0 138 -3 183 -1 21 0 43 4 49 4 5 3 25 -1 44 -4 18 -5 36 -2 39 3 3 5 40 3
83 -3 96 -3 110 1 200 2 39 0 72 -4 72 -3 0 -4 8 -2 18 7 29 9 142 3 142 -4 0
-3 17 1 38 3 20 3 49 -1 63 -3 15 -3 33 2 40 4 7 5 17 3 21 -5 8 -8 102 -4
123 1 6 1 44 0 85 -2 78 -1 137 3 180 1 14 -1 37 -5 52 -3 15 -3 30 2 33 5 3
5 18 0 34 -4 16 -6 32 -4 34 8 8 10 97 2 97 -3 0 -4 8 -2 18 6 26 10 142 4
142 -4 0 -4 116 0 130 3 7 0 138 -3 183 -1 21 0 43 4 49 4 5 3 25 -1 44 -4 18
-5 36 -2 39 4 3 5 37 4 75 -3 62 8 95 22 71 4 -5 18 -6 34 -2 15 4 38 5 52 1
14 -3 43 -3 65 0 22 3 59 3 83 0 23 -4 44 -4 47 -2 7 7 224 4 235 -3 5 -3 11
-1 14 4 4 5 19 6 34 2 15 -3 45 -4 67 -1 22 3 59 2 83 -1 23 -3 44 -3 47 0 2
4 27 6 57 4 29 -1 64 -3 78 -3 14 -1 55 -1 91 0 36 1 69 0 75 -1 5 -1 14 0 19
1 23 4 227 0 235 -5 5 -3 11 -1 14 4 4 5 19 6 34 2 15 -3 45 -4 67 -1 22 3 59
2 82 -1 24 -3 45 -4 48 -1 6 7 224 4 235 -3 5 -3 11 -1 14 4 4 5 19 6 34 2 15
-3 45 -4 67 -1 22 3 59 2 82 -1 24 -3 45 -3 48 -1 7 7 224 4 236 -4 5 -3 9 -2
9 3 0 8 94 7 116 -1 7 -3 15 -2 18 1 8 8 164 5 177 -3 5 -3 9 -2 9 3 0 8 94 7
116 -1 7 -3 15 -2 18 1 8 8 164 5 177 -3 5 -3 9 -2 9 3 0 8 94 7 116 -1 7 -3
15 -2 18 1 8 8 164 5 177 -3 5 -3 9 -2 9 3 0 8 94 7 116 -1 7 -3 15 -2 18 1 7
7 163 6 176 -2 5 -3 11 -1 14 4 4 5 19 6 34 2 15 -3 45 -4 67 -1 22 3 59 2 82
-1 24 -3 45 -4 48 -1 6 7 224 4 235 -3 5 -3 11 -1 14 4 4 5 19 6 34 2 15 -3
45 -4 67 -1 22 3 59 2 82 -1 24 -3 45 -4 48 -1 6 7 224 4 235 -3 5 -3 11 -1
14 4 4 5 19 6 34 2 15 -3 45 -4 67 -1 22 3 59 2 82 -1 24 -3 45 -4 48 -1 6 7
224 4 235 -3 5 -3 11 -1 14 4 4 5 19 6 34 2 15 -3 45 -4 67 -1 22 3 59 2 82
-1 24 -3 45 -4 48 -1 6 7 224 4 235 -3 5 -3 11 -1 14 4 4 5 19 6 34 2 15 -3
45 -4 67 -1 22 3 59 2 82 -1 24 -3 45 -4 48 -1 3 3 55 4 117 3 62 -1 120 -2
128 -2 98 2 142 1 150 -4 6 -3 10 -3 10 2 0 8 94 7 116 -1 7 -3 15 -2 18 1 8
8 164 5 177 -3 5 -3 9 -2 9 3 0 8 94 7 116 -1 7 -3 15 -2 18 1 8 8 164 5 177
-3 5 -3 9 -2 9 3 0 8 94 7 116 -1 7 -3 15 -2 18 1 3 4 39 5 79 4 39 -1 77 -2
82 -2 29 2 91 3 101 2 11 -1 17 -53 13 -123 0 -7 1 -38 1 -68 1 -30 1 -59 0
-65 -1 -5 -1 -44 0 -85 1 -41 1 -93 0 -115 -2 -58 -2 -77 -1 -105 1 -14 1 -32
1 -40 -1 -8 0 -40 0 -70 1 -30 1 -59 0 -65 -1 -5 -1 -44 0 -85 2 -78 1 -137
-3 -180 -1 -14 1 -37 5 -52 3 -15 3 -30 -2 -33 -5 -3 -5 -19 0 -35 5 -16 5
-32 0 -35 -5 -3 -5 -18 0 -34 4 -15 4 -34 0 -42 -5 -7 -6 -17 -4 -21 5 -8 8
-102 4 -123 -1 -5 -1 -44 0 -85 1 -41 1 -93 0 -115 -2 -58 -2 -77 -1 -105 1
-14 1 -32 1 -40 -1 -8 0 -40 0 -70 1 -30 1 -59 0 -65 -1 -5 -1 -44 0 -85 1
-41 1 -93 0 -115 -2 -58 -2 -77 -1 -105 1 -14 1 -32 1 -40 -1 -8 0 -40 0 -70
1 -30 1 -59 0 -65 -1 -5 -1 -44 0 -85 1 -41 1 -93 0 -115 -2 -58 -2 -77 -1
-105 1 -14 1 -32 1 -40 -1 -8 0 -40 0 -70 1 -30 1 -59 0 -65 -1 -5 -1 -44 0
-85 1 -41 1 -93 0 -115 -2 -58 -2 -77 -1 -105 1 -14 1 -32 1 -40 -1 -8 0 -40
0 -70 1 -30 1 -59 0 -65 -1 -5 -1 -44 0 -85 2 -78 1 -137 -3 -180 -1 -14 1
-37 5 -52 3 -15 3 -30 -2 -33 -5 -3 -5 -18 0 -34 4 -16 6 -32 4 -34 -8 -8 -10
-97 -2 -97 3 0 4 -8 2 -17 -7 -31 -9 -143 -2 -143 3 0 4 -8 2 -17 -7 -31 -9
-143 -2 -143 3 0 4 -8 2 -17 -7 -31 -9 -143 -2 -143 3 0 4 -8 2 -17 -7 -31 -9
-143 -2 -143 3 0 4 -8 2 -18 -7 -28 -10 -142 -3 -142 3 0 2 -24 -1 -53 -3 -29
-3 -67 1 -84 3 -17 3 -36 0 -41 -9 -14 -822 -14 -838 0 -7 6 -13 19 -13 29 0
11 -4 19 -8 19 -4 0 -14 16 -21 35 -7 19 -17 35 -22 35 -5 0 -9 6 -9 13 0 7
-8 19 -17 28 -10 8 -29 29 -43 45 -37 43 -115 100 -170 124 -14 6 -34 15 -45
20 -45 21 -139 38 -230 42 -62 3 -265 -54 -265 -74 0 -5 -9 -8 -20 -8 -11 0
-20 -4 -20 -8 0 -4 -12 -15 -28 -24 -47 -28 -133 -122 -173 -192 -21 -36 -36
-66 -34 -66 2 0 -3 -17 -11 -37 -9 -20 -18 -46 -20 -57 -5 -24 -16 -126 -16
-141 1 -29 14 -115 24 -150 6 -22 12 -46 14 -53 4 -23 73 -141 101 -173 133
-152 290 -221 488 -215 197 5 373 107 488 283 15 24 27 49 27 58 0 8 5 15 10
15 6 0 10 9 10 21 0 11 5 17 10 14 6 -3 10 -2 10 3 0 4 23 6 50 2 28 -4 53 -3
56 2 3 5 9 6 14 3 9 -5 152 -9 175 -5 6 2 15 1 20 0 8 -2 162 -1 280 1 6 0 60
0 120 -1 61 -1 115 -1 120 0 6 1 15 1 20 0 6 -1 39 -1 75 0 36 1 79 1 96 1 67
-3 145 50 177 121 16 34 17 217 17 2680 -1 2193 -3 2648 -14 2674 -19 43 -67
90 -111 109 -34 13 -434 15 -3879 14 -2908 0 -3847 -3 -3866 -12z m2157 -5211
c87 -45 124 -135 96 -235 -39 -141 -229 -186 -330 -78 -37 39 -61 101 -57 144
3 42 23 103 33 103 4 0 13 11 21 24 30 57 163 81 237 42z m4011 -2 c72 -47 99
-98 98 -181 -2 -79 -41 -137 -114 -173 -97 -48 -232 7 -268 109 -35 100 9 205
105 252 45 22 140 18 179 -7z"/>
<path d="M2137 5394 c-1 -1 -25 -5 -52 -7 -90 -8 -203 -40 -300 -83 -22 -10
-43 -18 -47 -18 -4 -1 -13 -7 -19 -13 -7 -7 -18 -13 -25 -13 -7 0 -14 -3 -16
-7 -1 -5 -28 -25 -58 -45 -70 -47 -191 -166 -230 -227 -16 -25 -33 -50 -38
-56 -25 -30 -106 -205 -95 -205 3 0 1 -6 -4 -12 -6 -7 -15 -33 -21 -58 -43
-166 -37 -408 13 -540 7 -19 13 -38 14 -42 1 -8 2 -11 5 -25 8 -31 64 -137
101 -193 54 -82 170 -203 245 -257 106 -78 268 -150 370 -168 19 -3 42 -8 51
-11 9 -2 48 -7 85 -10 38 -3 74 -5 79 -6 12 -1 136 10 186 17 91 12 299 97
375 154 12 9 32 23 45 31 38 25 163 152 206 210 43 58 133 224 133 246 0 7 5
25 12 41 13 32 11 27 23 78 4 22 10 47 12 55 9 32 10 274 1 318 -4 26 -10 56
-12 67 -7 40 -30 110 -38 119 -4 6 -8 15 -8 22 0 11 -40 99 -64 139 -95 163
-238 299 -402 385 -65 35 -212 87 -259 93 -17 3 -41 7 -55 11 -24 6 -208 15
-213 10z m161 -409 c73 -10 190 -54 212 -79 7 -9 18 -16 25 -16 18 0 127 -108
161 -160 38 -57 68 -123 84 -180 18 -64 20 -227 4 -290 -16 -61 -73 -190 -85
-190 -4 0 -10 -8 -13 -18 -9 -28 -96 -112 -160 -153 -96 -63 -175 -88 -296
-95 -86 -4 -169 9 -247 38 -58 21 -176 97 -206 132 -10 12 -28 32 -40 46 -84
95 -128 217 -133 362 -5 176 55 322 183 446 136 130 309 184 511 157z"/>
<path d="M4177 5004 c-3 -3 -11 -7 -19 -8 -86 -18 -150 -94 -154 -183 -3 -83
27 -142 97 -186 34 -22 159 -42 159 -25 0 5 4 7 8 4 9 -5 42 -7 132 -6 30 0
64 -2 75 -4 11 -2 29 0 40 4 11 4 29 4 40 0 11 -4 34 -4 52 1 18 4 35 3 38 -2
3 -4 16 -5 28 0 12 5 31 5 42 1 11 -4 35 -3 54 1 19 4 38 6 43 3 9 -6 228 -8
233 -2 2 2 32 1 67 -2 35 -3 77 -3 93 1 17 3 40 2 53 -3 13 -4 22 -4 22 3 0 6
5 7 10 4 12 -7 185 -9 197 -2 4 2 17 1 28 -3 11 -4 34 -4 52 1 18 4 35 3 38
-2 3 -4 16 -5 28 0 12 5 31 5 41 1 11 -4 34 -4 50 0 17 3 50 3 74 0 23 -4 45
-3 48 2 3 4 9 6 14 3 8 -5 57 -6 130 -4 8 0 50 -1 92 -2 43 -1 80 0 83 3 3 2
24 2 48 -1 23 -4 56 -4 72 -1 17 3 49 3 73 -1 23 -3 42 -3 42 1 0 4 14 5 30 1
17 -3 77 -3 133 0 122 6 160 25 214 107 19 28 25 105 12 154 -11 44 -79 115
-117 124 -15 3 -34 8 -42 11 -14 5 -104 7 -125 3 -5 -1 -12 -2 -15 -1 -15 5
-220 2 -228 -3 -6 -3 -13 -2 -17 4 -4 6 -10 8 -14 5 -9 -5 -61 -6 -192 -4 -48
1 -91 -1 -97 -5 -6 -3 -13 -2 -17 4 -4 6 -10 8 -14 5 -10 -5 -63 -6 -218 -3
-62 2 -113 -1 -113 -5 0 -5 -4 -5 -10 -2 -13 8 -416 9 -428 1 -6 -4 -13 -2
-17 4 -4 6 -10 8 -15 5 -10 -6 -46 -6 -293 -3 -108 2 -197 -1 -197 -5 0 -5 -4
-5 -10 -2 -13 8 -255 9 -268 1 -6 -3 -13 -3 -16 2 -3 5 -27 6 -55 2 -27 -3
-58 -3 -69 1 -11 4 -22 5 -25 3z"/>
<path d="M4357 4204 c-2 -2 -54 -5 -115 -7 -105 -2 -113 -4 -153 -33 -62 -45
-88 -97 -84 -172 3 -78 29 -121 100 -168 27 -18 53 -19 395 -21 201 -2 381 -3
400 -3 42 -1 454 -1 491 0 15 0 128 1 250 3 l224 2 46 32 c105 73 118 214 28
303 -22 22 -56 44 -77 49 -31 8 -131 14 -192 12 -8 0 -33 0 -55 0 -22 0 -49 0
-60 -1 -27 -2 -32 -2 -95 -1 -30 0 -62 0 -70 0 -8 0 -31 0 -50 0 -19 1 -42 1
-50 0 -8 0 -40 0 -70 0 -30 0 -62 0 -70 0 -8 0 -31 0 -50 0 -19 1 -42 1 -50 0
-8 0 -40 0 -70 0 -30 0 -62 0 -70 0 -8 0 -31 0 -50 0 -19 1 -42 1 -50 0 -8 0
-40 0 -70 0 -30 0 -62 0 -70 0 -8 0 -31 0 -50 0 -19 1 -42 1 -50 0 -8 0 -41 0
-73 1 -32 2 -60 0 -63 -3 -3 -2 -20 -1 -39 3 -19 4 -36 6 -38 4z"/>
<path d="M4167 2203 c-1 0 -26 -4 -54 -7 -29 -3 -63 -11 -75 -17 -13 -7 -24
-12 -25 -11 -11 6 -96 -34 -152 -72 -120 -80 -219 -224 -248 -359 -9 -42 -9
-201 -1 -254 10 -56 53 -157 94 -218 39 -58 174 -189 174 -168 0 3 8 -1 18
-10 16 -15 105 -53 147 -64 97 -24 224 -23 313 2 53 16 141 53 152 66 3 3 22
15 42 28 53 32 137 128 176 200 66 123 87 294 53 433 -21 91 -103 232 -162
282 -96 81 -199 138 -269 150 -19 3 -46 8 -60 11 -23 6 -119 12 -123 8z m83
-406 c0 3 11 -2 25 -11 14 -9 25 -13 25 -9 0 13 62 -52 77 -81 54 -104 0 -241
-112 -279 -137 -47 -267 52 -261 199 2 42 9 64 32 96 46 66 126 103 187 87 15
-4 27 -5 27 -2z"/>
</g>
</svg>
