<svg viewBox="0 0 24 24" xmlns="http://www.w3.org/2000/svg" xml:space="preserve" style="fill-rule:evenodd;clip-rule:evenodd;stroke-linejoin:round;stroke-miterlimit:2"><path d="M6.172 18.238a2.2 2.2 0 0 0-1.61-.76h-.005a3.213 3.213 0 0 0-.74.069l-.386.659A1.193 1.193 0 0 0 4.458 20c.408 0 .807-.212 1.028-.589l.686-1.173Zm11.43-4.725h3.687c.658 0 1.191.528 1.191 1.179 0 .65-.533 1.178-1.191 1.178h-2.305l1.368 2.336a1.19 1.19 0 1 1-2.053 1.205l-4.742-8.09a3.272 3.272 0 0 1 .148-2.391l.606-1.034 3.291 5.617Zm-7.09-7.39-4.33 7.39H2.711c-.658 0-1.191.528-1.191 1.179 0 .65.533 1.178 1.191 1.178h10.634a2.142 2.142 0 0 0-.175-1.634l-.137-.229a3.159 3.159 0 0 0-.395-.494H8.942l5.695-9.719a1.19 1.19 0 0 0-2.054-1.204l-.691 1.178-.691-1.179a1.191 1.191 0 0 0-2.055 1.204l1.366 2.33Z" style="fill:#fff;fill-rule:nonzero"/></svg>