<svg viewBox="0 0 24 24" xmlns="http://www.w3.org/2000/svg" xml:space="preserve" style="fill-rule:evenodd;clip-rule:evenodd;stroke-linejoin:round;stroke-miterlimit:2">
	<path d="M12.483 11.239c-.719.308-1.534.656-2.591.656a4.895 4.895 0 0 1-1.307-.18l.731 7.503a1.252 1.252 0 0 0 1.249 1.15s1.036.054 1.382.054c.372 0 1.488-.054 1.488-.054a1.252 1.252 0 0 0 1.249-1.15l.783-8.291a3.318 3.318 0 0 0-1.101-.199c-.688 0-1.243.237-1.883.511Z" style="fill:#fff;fill-rule:nonzero" />
	<path d="m18.846 7.346-.11-.556c-.099-.498-.323-.968-.834-1.148-.164-.058-.35-.082-.475-.202-.126-.119-.163-.304-.192-.476-.054-.315-.105-.63-.16-.945-.047-.27-.085-.574-.209-.822-.162-.333-.497-.528-.83-.657a4.906 4.906 0 0 0-.521-.161c-.833-.22-1.708-.3-2.564-.346a21.44 21.44 0 0 0-3.083.051c-.763.069-1.567.153-2.292.417-.265.097-.538.213-.739.417-.248.252-.328.641-.148.955.129.223.346.38.577.484.3.134.614.236.935.305.896.198 1.824.275 2.74.309 1.014.041 2.03.007 3.04-.1.25-.027.499-.06.748-.098.293-.045.481-.429.394-.695-.103-.32-.381-.443-.695-.395l-.138.021-.033.004a17.43 17.43 0 0 1-.98.096 22.25 22.25 0 0 1-2.947.006 18.513 18.513 0 0 1-.964-.09l-.095-.012-.021-.003-.098-.014a10.318 10.318 0 0 1-.604-.108.088.088 0 0 1-.051-.031.094.094 0 0 1-.02-.057.09.09 0 0 1 .02-.057.095.095 0 0 1 .051-.032h.004c.173-.037.348-.068.522-.096l.176-.026h.001c.11-.008.22-.027.329-.04a20.767 20.767 0 0 1 2.854-.101 19.453 19.453 0 0 1 1.682.121l.113.014.077.011c.222.033.444.074.664.121.327.071.746.094.892.452.046.114.067.24.093.359l.032.152.002.008.231 1.077a.196.196 0 0 1-.031.154.203.203 0 0 1-.135.082h-.002l-.047.007-.046.006a31.973 31.973 0 0 1-1.318.14 30.764 30.764 0 0 1-2.635.106 30.896 30.896 0 0 1-4.02-.268 20.299 20.299 0 0 1-.243-.035c-.271-.041-.54-.091-.81-.135-.327-.054-.64-.027-.936.135a1.357 1.357 0 0 0-.563.584c-.127.263-.165.55-.222.834-.057.283-.146.588-.112.879.072.627.511 1.137 1.142 1.252a33.045 33.045 0 0 0 9.452.313.396.396 0 0 1 .328.115.402.402 0 0 1 .117.327l-.06.581-.361 3.519c-.125 1.232-.252 2.464-.379 3.696l-.107 1.04c-.035.342-.04.694-.105 1.031-.102.531-.461.857-.985.976-.48.109-.971.167-1.463.171-.546.003-1.092-.021-1.638-.018-.583.003-1.296-.051-1.746-.485-.395-.38-.45-.977-.504-1.493-.072-.683-.143-1.365-.213-2.048l-.396-3.796-.256-2.457-.012-.121c-.031-.293-.238-.58-.565-.565-.28.012-.598.25-.565.565l.189 1.821.393 3.767.334 3.21.064.616c.123 1.12.979 1.724 2.039 1.894.618.099 1.252.12 1.88.13.805.013 1.618.044 2.41-.102 1.174-.215 2.054-.999 2.18-2.214l.107-1.053.358-3.483.389-3.794.178-1.738a.399.399 0 0 1 .104-.231.399.399 0 0 1 .221-.124c.336-.065.656-.177.895-.433.38-.406.455-.936.321-1.47Zm-12.621.375c.005-.003-.004.041-.009.062 0-.031.001-.059.009-.062Zm.032.251c.003-.001.011.009.019.022-.012-.012-.02-.02-.019-.022Zm.032.043c.012.019.018.032 0 0Zm.064.052h.002c0 .002.003.004.004.006-.001-.003-.003-.004-.006-.006Zm11.261-.078c-.12.114-.302.168-.481.194-2.013.299-4.055.45-6.089.384-1.456-.05-2.897-.212-4.339-.416-.141-.02-.294-.045-.391-.149-.183-.197-.093-.592-.046-.83.044-.217.127-.507.386-.538.403-.047.872.123 1.271.184.481.073.964.132 1.448.176 2.067.188 4.168.159 6.226-.117.375-.05.749-.109 1.121-.175.332-.06.7-.171.9.172.138.234.156.547.135.812a.454.454 0 0 1-.141.303Z" style="fill:#0d0c22;fill-rule:nonzero" />
</svg>
