<svg viewBox="0 0 24 24" xmlns="http://www.w3.org/2000/svg" xml:space="preserve" style="fill-rule:evenodd;clip-rule:evenodd;stroke-linecap:round;stroke-linejoin:round;stroke-miterlimit:2"><path style="fill:none" d="M0 0h24v24H0z"/><path d="M19 75.111a2.13 2.13 0 0 0 1.414-.521c.375-.333.586-.785.586-1.257V61.778c0-.472-.211-.924-.586-1.257A2.13 2.13 0 0 0 19 60H5a2.13 2.13 0 0 0-1.414.521A1.683 1.683 0 0 0 3 61.778v11.555c0 .472.211.924.586 1.257A2.13 2.13 0 0 0 5 75.111h14Z" style="fill:none;stroke:#fff;stroke-width:1.88px" transform="matrix(1 0 0 1.125 0 -63.5)"/><path d="M76 30v4" style="fill:none;stroke:#fff;stroke-width:2px" transform="translate(-60 -28)"/><path d="M76 30v4" style="fill:none;stroke:#fff;stroke-width:2px" transform="translate(-68 -28)"/><path d="M63 38h10" style="fill:none;stroke:#fff;stroke-width:2px" transform="translate(-56 -28)"/></svg>