<svg viewBox="0 0 24 24" xmlns="http://www.w3.org/2000/svg" xml:space="preserve" style="fill-rule:evenodd;clip-rule:evenodd;stroke-linecap:round;stroke-linejoin:round;stroke-miterlimit:2"><path style="fill:none" d="M0 0h24v24H0z"/><path d="M11.5 22a.952.952 0 0 1-1.052.945c-4.358-.544-7.851-4.338-8.379-8.39a.938.938 0 0 1 .936-1.046c.399-.009.847-.009 1.202-.009.388 0 .738.237.882.597l.478 1.196a.95.95 0 0 1-.21 1.025l-.107.107a.951.951 0 0 0-.181 1.091c.495.825 1.59 1.92 2.425 2.396a.927.927 0 0 0 1.066-.177c.05-.02.086-.056.122-.092a.95.95 0 0 1 1.025-.21l1.196.478c.36.144.597.494.597.882V22Z" style="fill:none;stroke:#fff;stroke-width:.95px" transform="translate(-2.21 -26.421) scale(2.10526)"/></svg>