<svg xmlns="http://www.w3.org/2000/svg" fill="#fff" viewBox="0 0 24 24">
	<path fill="#00d632" d="M15.032 2c2 0 3 0 4.093.344a4.25 4.25 0 0 1 2.53 2.531C22 5.968 22 6.969 22 8.972v6.053c0 2.006 0 3.012-.344 4.093a4.25 4.25 0 0 1-2.531 2.532c-1.094.35-2.093.35-4.093.35H8.969c-2.007 0-3.012 0-4.094-.344a4.25 4.25 0 0 1-2.532-2.531C2 18.031 2 17.032 2 15.028V8.97c0-2.007 0-3.012.344-4.094a4.25 4.25 0 0 1 2.531-2.532C5.968 2 6.969 2 8.969 2Z" />
	<path d="M15.272 9.437a.396.396 0 0 0 .562 0l.782-.812c.165-.156.156-.438-.02-.606a6.166 6.166 0 0 0-2.1-1.2l.247-1.187a.415.415 0 0 0-.4-.504h-1.511a.412.412 0 0 0-.4.331l-.22 1.057C10.2 6.619 8.493 7.64 8.493 9.734c0 1.813 1.41 2.591 2.9 3.125 1.41.538 2.157.738 2.157 1.494 0 .779-.743 1.234-1.843 1.234-1 0-2.05-.334-2.863-1.15a.407.407 0 0 0-.575 0l-.844.845a.425.425 0 0 0 0 .6c.657.646 1.487 1.115 2.435 1.375l-.232 1.115c-.052.26.138.5.398.503l1.515.012a.412.412 0 0 0 .406-.33l.219-1.06c2.421-.163 3.896-1.497 3.896-3.444 0-1.794-1.469-2.55-3.25-3.166-1.018-.378-1.9-.637-1.9-1.415 0-.756.822-1.056 1.647-1.056 1.05 0 2.06.434 2.72 1.028z" />
</svg>
