<svg xmlns="http://www.w3.org/2000/svg" xmlns:xlink="http://www.w3.org/1999/xlink" width="24" height="24" viewBox="0 0 6.349 6.349"><defs><linearGradient id="b" x1="42519.285" x2="42575.336" y1="-7078.789" y2="-6966.931" gradientUnits="userSpaceOnUse" xlink:href="#a"/><linearGradient id="a"><stop offset="0" stop-color="#fff" stop-opacity="0"/><stop offset=".495" stop-color="#fff"/><stop offset="1" stop-color="#fff"/></linearGradient></defs><g paint-order="stroke markers fill"><path style="font-variation-settings:normal;fill:url(#b)" fill="url(#b)" d="M42519.285-7078.79a.76.568 0 0 0-.738.675l33.586 125.888a87.182 87.182 0 0 0 39.381-33.763l-71.565-92.52a.76.568 0 0 0-.664-.28z" opacity=".5" transform="translate(-1066.143 180.113) scale(.02515)"/><path fill="#fff" d="M3.167 1.058A2.193 2.193 0 0 0 .982 3.251a2.193 2.193 0 0 0 .335 1.166l1.828-2.365a.034.026 0 0 1 .06 0l1.827 2.364a2.193 2.193 0 0 0 .335-1.166 2.193 2.193 0 0 0-2.192-2.19 2.193 2.193 0 0 0-.008 0z"/></g></svg>