<?xml version="1.0" encoding="UTF-8" standalone="no"?>
<svg
   xmlns:dc="http://purl.org/dc/elements/1.1/"
   xmlns:cc="http://creativecommons.org/ns#"
   xmlns:rdf="http://www.w3.org/1999/02/22-rdf-syntax-ns#"
   xmlns:svg="http://www.w3.org/2000/svg"
   xmlns="http://www.w3.org/2000/svg"
   xmlns:xlink="http://www.w3.org/1999/xlink"
   xmlns:sodipodi="http://sodipodi.sourceforge.net/DTD/sodipodi-0.dtd"
   xmlns:inkscape="http://www.inkscape.org/namespaces/inkscape"
   width="24"
   height="24"
   viewBox="0 0 6.3495 6.3495"
   version="1.1"
   id="svg20"
   sodipodi:docname="codeberg.svg"
   inkscape:version="1.0.1 (3bc2e813f5, 2020-09-07)">
  <metadata
     id="metadata24">
    <rdf:RDF>
      <cc:Work
         rdf:about="">
        <dc:format>image/svg+xml</dc:format>
        <dc:type
           rdf:resource="http://purl.org/dc/dcmitype/StillImage" />
        <dc:title></dc:title>
      </cc:Work>
    </rdf:RDF>
  </metadata>
  <sodipodi:namedview
     pagecolor="#ffffff"
     bordercolor="#666666"
     borderopacity="1"
     objecttolerance="10"
     gridtolerance="10"
     guidetolerance="10"
     inkscape:pageopacity="0"
     inkscape:pageshadow="2"
     inkscape:window-width="1920"
     inkscape:window-height="1051"
     id="namedview22"
     showgrid="false"
     inkscape:zoom="18.539456"
     inkscape:cx="-0.72257661"
     inkscape:cy="19.309759"
     inkscape:window-x="0"
     inkscape:window-y="0"
     inkscape:window-maximized="1"
     inkscape:current-layer="svg20" />
  <defs
     id="defs2" />
  <defs
     id="defs12">
    <linearGradient
       id="b"
       x1="42519.285"
       x2="42575.336"
       y1="-7078.7891"
       y2="-6966.9312"
       gradientUnits="userSpaceOnUse"
       xlink:href="#a" />
    <linearGradient
       id="a">
      <stop
         offset="0"
         stop-color="#fff"
         stop-opacity="0"
         id="stop5" />
      <stop
         offset=".495"
         stop-color="#fff"
         id="stop7" />
      <stop
         offset="1"
         stop-color="#fff"
         id="stop9" />
    </linearGradient>
  </defs>
  <g
     paint-order="stroke markers fill"
     id="g18"
     transform="matrix(1.0403882,0,0,1.0403882,0.97276837,0.91571691)">
    <path
       style="font-variation-settings:normal;fill:url(#b)"
       fill="url(#b)"
       stroke-miterlimit="2"
       stroke-width="3.678"
       d="m 42519.285,-7078.79 a 0.76,0.568 0 0 0 -0.738,0.675 l 33.586,125.888 a 87.182,87.182 0 0 0 39.381,-33.763 l -71.565,-92.52 a 0.76,0.568 0 0 0 -0.664,-0.28 z"
       opacity="0.5"
       transform="matrix(0.02417,0,0,0.02417,-1025.69,172.241)"
       id="path14" />
    <path
       fill="#ffffff"
       stroke-width="2.015"
       d="m 2.109,0.137 a 2.108,2.108 0 0 0 -2.1,2.108 2.108,2.108 0 0 0 0.322,1.12 L 2.088,1.092 a 0.033,0.025 0 0 1 0.057,0 l 1.757,2.272 a 2.108,2.108 0 0 0 0.322,-1.12 2.108,2.108 0 0 0 -2.107,-2.106 2.108,2.108 0 0 0 -0.008,0 z"
       id="path16" />
  </g>
</svg>
