<svg viewBox="0 0 24 24" xmlns="http://www.w3.org/2000/svg" xml:space="preserve" style="fill-rule:evenodd;clip-rule:evenodd;stroke-linecap:round;stroke-linejoin:round;stroke-miterlimit:2"><path style="fill:none" d="M0 0h24v24H0z"/><path d="M22 11a2 2 0 0 0-2-2h-9a2 2 0 0 0-2 2v9a2 2 0 0 0 2 2h9a2 2 0 0 0 2-2v-9Z" style="fill:none;stroke:#fff;stroke-width:2px"/><path d="M5 15H4c-1.097 0-2-.903-2-2V4c0-1.097.903-2 2-2h9c1.097 0 2 .903 2 2v1" style="fill:none;fill-rule:nonzero;stroke:#fff;stroke-width:2px"/></svg>