<svg viewBox="0 0 24 24" xmlns="http://www.w3.org/2000/svg" fill-rule="evenodd" clip-rule="evenodd" stroke-linejoin="round" stroke-miterlimit="2">
	<path d="M15.38 21.065c-.011 0-3.531-5.072-3.551-5.072-.021-.001-3.447 4.853-3.457 4.853-.026 0-3.374-2.45-3.383-2.476-.004-.012 3.372-5.129 3.372-5.156 0-.044-5.341-1.9-5.358-1.907-.025-.01.115-.495.593-2.063.344-1.127.633-2.059.643-2.07.009-.011 5.653 1.901 5.669 1.901.015 0 .033-.024.039-.054.006-.03.057-6.039.068-6.056.014-.024.449-.03 2.044-.03 1.113.001 2.036.009 2.05.019.018.012.186 6.315.237 6.315.02 0 5.418-1.885 5.427-1.875.03.035 1.242 4.135 1.227 4.151-.008.008-5.469 1.945-5.475 1.976-.004.023 3.218 4.96 3.214 4.973-.009.028-3.331 2.571-3.359 2.571z" fill="#fff" fill-rule="nonzero" />
</svg>
