<svg viewBox="0 0 24 24" xmlns="http://www.w3.org/2000/svg" clip-rule="evenodd" stroke-linejoin="round" stroke-miterlimit="2" fill="#fff"><path d="M10.552 10.712c-.456 0-.816.4-.816.888s.368.888.816.888c.456 0 .816-.4.816-.888.008-.488-.36-.888-.816-.888zm2.92 0c-.456 0-.816.4-.816.888s.368.888.816.888c.456 0 .816-.4.816-.888s-.36-.888-.816-.888z"/><path d="M18.7 3H5.3c-1.13 0-2.05.92-2.05 2.06v13.52c0 1.14.92 2.06 2.05 2.06h11.34l-.53-1.85 1.28 1.19 1.21 1.12 2.15 1.9V5.06c0-1.14-.92-2.06-2.05-2.06zm-3.86 13.06s-.36-.43-.66-.81c1.31-.37 1.81-1.19 1.81-1.19-.41.27-.8.46-1.15.59-.5.21-.98.35-1.45.43-.96.18-1.84.13-2.59-.01-.57-.11-1.06-.27-1.47-.43-.23-.09-.48-.2-.73-.34-.03-.02-.06-.03-.09-.05-.02-.01-.03-.02-.04-.03-.18-.1-.28-.17-.28-.17s.48.8 1.75 1.18c-.3.38-.67.83-.67.83-2.21-.07-3.05-1.52-3.05-1.52 0-3.22 1.44-5.83 1.44-5.83 1.44-1.08 2.81-1.05 2.81-1.05l.1.12c-1.8.52-2.63 1.31-2.63 1.31s.22-.12.59-.29c1.07-.47 1.92-.6 2.27-.63.06-.01.11-.02.17-.02a8.152 8.152 0 015.03.94s-.79-.75-2.49-1.27l.14-.16s1.37-.03 2.81 1.05c0 0 1.44 2.61 1.44 5.83 0 0-.85 1.45-3.06 1.52z"/></svg>