<svg viewBox="0 0 24 24" xmlns="http://www.w3.org/2000/svg" clip-rule="evenodd" stroke-linejoin="round" stroke-miterlimit="2"><g fill="#009fe3"><path d="M12 14.49a3.467 3.467 0 003.463-3.462.19.19 0 00-.184-.184h-1.305a.189.189 0 00-.183.184c0 .981-.799 1.79-1.791 1.79a1.793 1.793 0 01-1.791-1.79.189.189 0 00-.183-.184H8.721a.19.19 0 00-.184.184A3.46 3.46 0 0012 14.49z"/><path d="M12 17.759c3.7 0 6.721-3.021 6.721-6.721a.19.19 0 00-.184-.183h-1.305a.188.188 0 00-.183.183 5.06 5.06 0 01-10.119 0 .189.189 0 00-.184-.183H5.463a.19.19 0 00-.184.183c-.021 3.7 2.999 6.721 6.721 6.721z"/><path d="M21.817 10.855h-1.306a.188.188 0 00-.183.183c0 4.596-3.754 8.339-8.339 8.339-4.595 0-8.339-3.732-8.339-8.339a.188.188 0 00-.183-.183H2.183a.188.188 0 00-.183.183c0 5.513 4.488 10 10 10s10-4.487 10-10a.188.188 0 00-.183-.183z"/></g><path d="M7.499 6.561c.669.345 1.391.41 2.039.787.42.248.69.518.949.928.41.615.388 1.391.388 1.391l.054.853s.324.852 1.047.852c.766 0 1.046-.852 1.046-.852l.054-.853s-.022-.765.388-1.391c.259-.41.518-.701.95-.928.647-.377 1.37-.442 2.038-.787.669-.346 1.317-.788 1.759-1.403.442-.615.647-1.434.41-2.157-1.273-.065-2.74.086-3.862.69-1.564.831-2.514.54-2.794 1.78h-.022c-.28-1.251-1.219-.949-2.794-1.78-1.122-.604-2.589-.755-3.862-.69-.248.723-.032 1.532.41 2.157.475.626 1.133 1.068 1.802 1.403z" fill="#3c3c3b"/></svg>