<svg xmlns="http://www.w3.org/2000/svg" width="24" height="24" fill="#fff"><path fill-rule="evenodd" d="M12.03 2a9.97 9.97 0 00-3.16 19.44c.5.09.68-.22.68-.48v-1.7c-2.78.6-3.37-1.34-3.37-1.34-.45-1.15-1.1-1.46-1.1-1.46-.91-.61.06-.6.06-.6 1 .07 1.53 1.03 1.53 1.03.89 1.52 2.33 1.08 2.9.83.1-.65.35-1.09.64-1.34-2.22-.25-4.55-1.1-4.55-4.93 0-1.08.4-1.98 1.03-2.67-.1-.26-.45-1.27.1-2.64 0 0 .83-.27 2.74 1.02a9.58 9.58 0 015 0c1.9-1.3 2.73-1.02 2.73-1.02.55 1.37.2 2.38.1 2.64.64.7 1.03 1.58 1.03 2.67 0 3.84-2.33 4.68-4.56 4.92.36.31.68.92.68 1.85l-.01 2.74c0 .26.18.57.68.48A9.98 9.98 0 0012.03 2z" clip-rule="evenodd"/></svg>