<svg viewBox="0 0 24 24" xmlns="http://www.w3.org/2000/svg" xml:space="preserve" style="fill-rule:evenodd;clip-rule:evenodd;stroke-linejoin:round;stroke-miterlimit:2"><path d="m21.669 9.992-.029-.072-2.722-7.105a.713.713 0 0 0-.28-.338.73.73 0 0 0-.834.045.734.734 0 0 0-.241.367l-1.838 5.624H8.281L6.442 2.889a.716.716 0 0 0-.241-.368.73.73 0 0 0-.834-.045.723.723 0 0 0-.28.338L2.36 9.916l-.028.072a5.069 5.069 0 0 0 1.677 5.843l.01.007.025.018 4.147 3.106 2.052 1.553 1.25.943a.84.84 0 0 0 1.016 0l1.25-.943 2.052-1.553 4.172-3.125.011-.008a5.07 5.07 0 0 0 1.675-5.837Z" style="fill:#e24329;fill-rule:nonzero"/><path d="m8.191 18.966 2.052 1.553 1.25.943a.84.84 0 0 0 1.016 0l1.25-.943 2.052-1.553S14.036 17.623 12 16.087c-2.036 1.536-3.809 2.879-3.809 2.879Z" style="fill:#fca326;fill-rule:nonzero"/><path d="m21.669 9.992-.029-.072a9.193 9.193 0 0 0-3.661 1.646L12 16.087c2.036 1.541 3.809 2.879 3.809 2.879l4.172-3.125.011-.008a5.07 5.07 0 0 0 1.677-5.841Zm-15.65 1.574a9.18 9.18 0 0 0-3.659-1.65l-.028.072a5.069 5.069 0 0 0 1.677 5.843l.035.025 4.147 3.106L12 16.083l-5.981-4.517Z" style="fill:#fc6d26;fill-rule:nonzero"/></svg>