<svg viewBox="0 0 24 24" xmlns="http://www.w3.org/2000/svg" xml:space="preserve" style="fill-rule:evenodd;clip-rule:evenodd;stroke-linecap:round;stroke-linejoin:round;stroke-miterlimit:2"><path style="fill:none" d="M0 0h24v24H0z"/><path d="M162 37v3" style="fill:none;stroke:#fff;stroke-width:1.09px" transform="matrix(1 0 0 .83333 -154.5 -20.333)"/><circle cx="216.5" cy="37.5" r=".5" style="fill:#fff" transform="translate(-209 -28.5)"/><path d="M164 40v-1.875" style="fill:none;stroke:#fff;stroke-width:.85px" transform="matrix(1 0 0 1.33333 -154.5 -40.333)"/><circle cx="225" cy="40" r="1" style="fill:none;stroke:#fff;stroke-width:.8px" transform="matrix(1.25 0 0 1.25 -264.5 -38.25)"/><path d="M218.5 40.5v-1a1 1 0 0 1 2 0V41v-1.5a.997.997 0 0 1 1-1 .997.997 0 0 1 1 1V41" style="fill:none;stroke:#fff;stroke-width:1px" transform="translate(-209 -28)"/><path d="M212.809 45.074A9.447 9.447 0 0 1 211 39.5c0-5.243 4.257-9.5 9.5-9.5s9.5 4.257 9.5 9.5-4.257 9.5-9.5 9.5a9.453 9.453 0 0 1-4.847-1.329L211 49s1.309-1.309 1.809-3.926Z" style="fill:none;stroke:#fff;stroke-width:2px" transform="translate(-208 -28)"/></svg>