<svg viewBox="0 0 24 24" version="1.1" xmlns="http://www.w3.org/2000/svg" style="fill-rule:evenodd;clip-rule:evenodd;stroke-linejoin:round;stroke-miterlimit:2;">
	<path d="M4.796,1.577C4.072,1.859 3.459,2.234 2.847,2.847C2.234,3.455 1.859,4.073 1.577,4.793C1.304,5.49 1.121,6.291 1.067,7.463C1.013,8.634 1,9.01 1,11.998C1,14.985 1.013,15.361 1.067,16.533C1.121,17.705 1.309,18.505 1.577,19.203C1.859,19.927 2.234,20.54 2.847,21.153C3.459,21.766 4.072,22.141 4.796,22.423C5.494,22.696 6.294,22.879 7.466,22.933C8.637,22.987 9.013,23 12,23C14.987,23 15.363,22.987 16.534,22.933C17.706,22.879 18.506,22.691 19.204,22.423C19.928,22.141 20.541,21.766 21.153,21.153C21.766,20.54 22.141,19.927 22.423,19.203C22.696,18.505 22.879,17.705 22.933,16.533C22.987,15.361 23,14.985 23,11.998C23,9.01 22.987,8.634 22.933,7.463C22.879,6.291 22.691,5.49 22.423,4.793C22.141,4.073 21.766,3.455 21.158,2.847C20.545,2.234 19.933,1.859 19.208,1.577C18.511,1.304 17.71,1.121 16.539,1.067C15.367,1.013 14.991,1 12.004,1C9.017,1 8.642,1.013 7.47,1.067C6.294,1.116 5.494,1.304 4.796,1.577ZM16.445,3.044C17.518,3.093 18.099,3.272 18.488,3.424C19.002,3.625 19.369,3.862 19.754,4.247C20.138,4.632 20.375,4.998 20.576,5.513C20.728,5.902 20.907,6.483 20.957,7.557C21.01,8.715 21.019,9.064 21.019,12.002C21.019,14.941 21.006,15.289 20.957,16.448C20.907,17.521 20.728,18.103 20.576,18.492C20.375,19.006 20.138,19.373 19.754,19.757C19.369,20.142 19.002,20.379 18.488,20.58C18.099,20.732 17.518,20.911 16.445,20.961C15.287,21.014 14.938,21.023 12,21.023C9.062,21.023 8.713,21.01 7.555,20.961C6.482,20.911 5.901,20.732 5.512,20.58C4.998,20.379 4.631,20.142 4.246,19.757C3.862,19.373 3.625,19.006 3.424,18.492C3.272,18.103 3.093,17.521 3.043,16.448C2.99,15.289 2.981,14.941 2.981,12.002C2.981,9.064 2.994,8.715 3.043,7.557C3.093,6.483 3.272,5.902 3.424,5.513C3.625,4.998 3.862,4.632 4.246,4.247C4.631,3.862 4.998,3.625 5.512,3.424C5.901,3.272 6.482,3.093 7.555,3.044C8.713,2.99 9.062,2.981 12,2.981C14.938,2.981 15.287,2.99 16.445,3.044ZM6.352,12.002C6.352,15.124 8.883,17.651 12,17.651C15.117,17.651 17.648,15.12 17.648,12.002C17.648,8.885 15.121,6.354 12,6.354C8.879,6.354 6.352,8.88 6.352,12.002ZM15.667,12.002C15.667,14.028 14.026,15.67 12,15.67C9.974,15.67 8.333,14.028 8.333,12.002C8.333,9.976 9.974,8.335 12,8.335C14.026,8.335 15.667,9.976 15.667,12.002ZM17.876,4.811C18.604,4.811 19.195,5.402 19.195,6.13C19.195,6.858 18.604,7.449 17.876,7.449C17.148,7.449 16.557,6.858 16.557,6.13C16.557,5.402 17.148,4.811 17.876,4.811Z" style="fill:url(#gradient1);fill-rule:nonzero;" />
	<defs>
		<radialGradient id="gradient1" cx="0" cy="0" r="1" gradientUnits="userSpaceOnUse" gradientTransform="matrix(-22,22,-22,-22,23,1)">
			<stop offset="0" style="stop-color:#4c63d2;stop-opacity:1" />
			<stop offset="0.4" style="stop-color:#bc3081;stop-opacity:1" />
			<stop offset="0.75" style="stop-color:#f47133;stop-opacity:1" />
			<stop offset="1" style="stop-color:#fed576;stop-opacity:1" />
		</radialGradient>
	</defs>
</svg>
