<svg viewBox="0 0 24 24" xmlns="http://www.w3.org/2000/svg" xml:space="preserve" style="fill-rule:evenodd;clip-rule:evenodd;stroke-linecap:round;stroke-linejoin:round;stroke-miterlimit:2"><path style="fill:none" d="M0 0h24v24H0z"/><path d="M11.39 143.61a5.502 5.502 0 0 1 1.637 3.915c0 3.017-2.483 5.5-5.5 5.5a5.502 5.502 0 0 1-3.915-1.637 5.502 5.502 0 0 1-1.544-3.821c0-3.017 2.483-5.5 5.5-5.5 1.425 0 2.796.554 3.821 1.544l.001-.001Z" style="fill:none;fill-rule:nonzero;stroke:#fff;stroke-width:2px" transform="matrix(1.00374 0 0 1.00384 -.076 -132.612)"/><path d="m11.39 143.61 4.11-4.11" style="fill:none;fill-rule:nonzero;stroke:#fff;stroke-width:2px" transform="matrix(1.6691 -.6691 -.6691 1.6691 88.468 -220.468)"/><path d="m16 139 3 3 3-3-3-3" style="fill:none;fill-rule:nonzero;stroke:#fff;stroke-width:2px" transform="translate(0 -132)"/></svg>