<svg viewBox="0 0 24 24" xmlns="http://www.w3.org/2000/svg" xml:space="preserve" style="fill-rule:evenodd;clip-rule:evenodd;stroke-linecap:round;stroke-linejoin:round;stroke-miterlimit:2"><path style="fill:none" d="M0 0h24v24H0z"/><path d="M164 30c5.519 0 10 4.033 10 9 0 8-11 11-11 11v-2.045c-5.05-.452-9-4.291-9-8.955 0-4.967 4.481-9 10-9Z" style="fill:none;stroke:#fff;stroke-width:2px" transform="translate(-152 -28)"/><path d="M158 37v4h2" style="fill:none;stroke:#fff;stroke-width:1px" transform="translate(-152 -28.5)"/><path d="M162 37v3m2 0v-3l2 3v-3m4 0h-2v3h2" style="fill:none;stroke:#fff;stroke-width:.85px" transform="matrix(1 0 0 1.33333 -152 -40.833)"/><path d="M169 39h2" style="fill:none;stroke:#fff;stroke-width:1px" transform="translate(-153 -28.5)"/></svg>