<svg viewBox="0 0 24 24" xmlns="http://www.w3.org/2000/svg" xml:space="preserve" style="fill-rule:evenodd;clip-rule:evenodd;stroke-linecap:round;stroke-linejoin:round;stroke-miterlimit:2"><path style="fill:none" d="M0 0h24v24H0z"/><path d="M164 30c5.519 0 10 4.033 10 9 0 8-11 11-11 11v-2.045c-5.05-.452-9-4.291-9-8.955 0-4.967 4.481-9 10-9Z" style="fill:none;stroke:#fff;stroke-width:2px" transform="translate(-152 -28)"/><path d="M158 37v4h2" style="fill:none;stroke:#fff;stroke-width:1px;stroke-miterlimit:1" transform="translate(-152 -28.5)"/><path d="M168 38.5h1.5" style="fill:none;stroke:#fff;stroke-width:1px;stroke-miterlimit:1" transform="translate(-152 -28)"/><path d="M162 37v4" style="fill:none;stroke:#fff;stroke-width:1px;stroke-miterlimit:1" transform="translate(-152 -28.5)"/><path d="M164 40.5v-4l2 4v-4M170 36.5h-2v4h2" style="fill:none;stroke:#fff;stroke-width:1px;stroke-miterlimit:1" transform="translate(-152 -28)"/></svg>