<svg viewBox="0 0 200 150"
  xmlns="http://www.w3.org/2000/svg" fill="#38A169" fill-rule="evenodd" clip-rule="evenodd" stroke-linejoin="round" stroke-miterlimit="2">
  <path d="M40.732 140H5a5 5 0 01-5-5V5a5 5 0 015-5h190a5 5 0 015 5v130a5 5 0 01-5 5h-25.855c-2.061 5.823-7.619 10-14.145 10-8.279 0-15-6.721-15-15s6.721-15 15-15c6.526 0 12.084 4.177 14.145 10H190V10H10v120h30.732c2.06-5.823 7.619-10 14.145-10 8.279 0 15 6.721 15 15s-6.721 15-15 15c-6.526 0-12.085-4.177-14.145-10zM105 119.919c-8.279 0-15 6.722-15 15 0 8.279 6.721 15 15 15s15-6.721 15-15c0-8.278-6.721-15-15-15zM54.877 130c2.759 0 5 2.24 5 5s-2.241 5-5 5c-2.76 0-5-2.24-5-5s2.24-5 5-5zM155 130c2.76 0 5 2.24 5 5s-2.24 5-5 5-5-2.24-5-5 2.24-5 5-5zm-50-.081c2.76 0 5 2.241 5 5 0 2.76-2.24 5-5 5s-5-2.24-5-5c0-2.759 2.24-5 5-5zM55 40.138c-13.803 0-25 11.176-25 24.931S41.197 90 55 90s25-11.176 25-24.931-11.197-24.931-25-24.931zm0 10c8.274 0 15 6.685 15 14.931C70 73.314 63.274 80 55 80c-8.274 0-15-6.686-15-14.931 0-8.246 6.726-14.931 15-14.931zM145 70h-40c-2.76 0-5 2.24-5 5s2.24 5 5 5h40c2.76 0 5-2.24 5-5s-2.24-5-5-5zm-40-10h60c2.76 0 5-2.24 5-5s-2.24-5-5-5h-60c-2.76 0-5 2.24-5 5s2.24 5 5 5z"/>
</svg>