<svg viewBox="0 0 24 24" xmlns="http://www.w3.org/2000/svg" fill-rule="evenodd" clip-rule="evenodd" stroke-linejoin="round" stroke-miterlimit="2" fill="#fff"><path d="M20.93 13.99c-.274 1.411-2.455 2.955-4.961 3.254-1.307.156-2.594.299-3.966.236-2.243-.103-4.013-.535-4.013-.535 0 .218.013.426.04.621.291 2.214 2.195 2.346 3.999 2.408 1.82.063 3.441-.448 3.441-.448l.075 1.645s-1.274.684-3.542.81c-1.25.068-2.803-.032-4.612-.511-3.923-1.038-4.598-5.22-4.701-9.462-.031-1.26-.012-2.448-.012-3.441 0-4.339 2.842-5.611 2.842-5.611 1.434-.658 3.894-.935 6.45-.956h.063c2.557.021 5.018.298 6.452.956 0 0 2.842 1.272 2.842 5.611 0 0 .036 3.201-.397 5.423zm-2.956-5.087v5.253h-2.081V9.058c0-1.075-.453-1.621-1.357-1.621-1.001 0-1.501.647-1.501 1.927v2.791h-2.07V9.364c0-1.28-.501-1.927-1.501-1.927-.904 0-1.357.546-1.357 1.621v5.098H6.025V8.903c0-1.074.275-1.927.823-2.558.567-.632 1.308-.955 2.228-.955 1.066 0 1.872.409 2.405 1.228l.519.87.519-.87c.532-.819 1.339-1.228 2.404-1.228.921 0 1.662.323 2.228.955.549.631.823 1.484.823 2.558z"/></svg>