<svg viewBox="0 0 24 24" xmlns="http://www.w3.org/2000/svg" xml:space="preserve" style="fill-rule:evenodd;clip-rule:evenodd;stroke-linecap:round;stroke-linejoin:round;stroke-miterlimit:2"><path style="fill:none" d="M0 0h24v24H0z"/><path d="M218.5 38.917V41v-1.215c0-.23.094-.451.26-.614a.9.9 0 0 1 .629-.254c.236 0 .462.091.628.254a.858.858 0 0 1 .261.614V41v-1.215c0-.23.093-.451.26-.614a.9.9 0 0 1 .629-.254c.235 0 .462.091.628.254a.858.858 0 0 1 .261.614V41" style="fill:none;stroke:#fff;stroke-width:.7px" transform="matrix(2.8125 0 0 2.88 -607.531 -103.08)"/><path d="M170.5 60.714h2v14.572h-2" style="fill:none;stroke:#fff;stroke-width:.92px" transform="matrix(1 0 0 1.16667 -150 -67.333)"/><path d="M170.5 60.714h2v14.572h-2" style="fill:none;stroke:#fff;stroke-width:.92px" transform="matrix(-1 0 0 1.16667 174 -67.333)"/></svg>