<svg viewBox="0 0 24 24" xmlns="http://www.w3.org/2000/svg" clip-rule="evenodd" stroke-linejoin="round" stroke-miterlimit="2" fill="#fff"><path d="M13.278 11.995c0 3.135-2.525 5.677-5.639 5.677C4.524 17.672 2 15.13 2 11.994c0-3.135 2.524-5.677 5.639-5.677 3.114 0 5.639 2.542 5.639 5.678zm6.185.006c0 2.951-1.262 5.344-2.82 5.344-1.556 0-2.819-2.393-2.819-5.344 0-2.951 1.263-5.345 2.819-5.345 1.558 0 2.82 2.394 2.82 5.345zM22 11.994c0 2.644-.443 4.789-.991 4.789s-.992-2.145-.992-4.789c0-2.644.444-4.788.992-4.788S22 9.349 22 11.994z"/></svg>