<?xml version="1.0" encoding="UTF-8" standalone="no"?><!DOCTYPE svg PUBLIC "-//W3C//DTD SVG 1.1//EN" "http://www.w3.org/Graphics/SVG/1.1/DTD/svg11.dtd"><svg width="100%" height="100%" viewBox="0 0 24 24" version="1.1" xmlns="http://www.w3.org/2000/svg" xmlns:xlink="http://www.w3.org/1999/xlink" xml:space="preserve" xmlns:serif="http://www.serif.com/" style="fill-rule:evenodd;clip-rule:evenodd;stroke-linejoin:round;stroke-miterlimit:2;"><path d="M12,1.983c-5.53,-0 -10.022,4.491 -10.015,10.016c0.001,1.105 0.178,2.168 0.508,3.163l2.997,0l0,-8.426l6.51,6.51l6.509,-6.51l0,8.426l2.998,0c0.331,-0.995 0.506,-2.058 0.508,-3.163c0.01,-5.531 -4.485,-10.015 -10.015,-10.015l-0,-0.001Z" style="fill:#f26821;fill-rule:nonzero;"/><path d="M10.503,14.742l-2.841,-2.841l0,5.302l-2.172,0l-2.05,0.001c1.759,2.884 4.936,4.813 8.56,4.813c3.624,0 6.802,-1.93 8.56,-4.814l-2.051,0l-2.172,0l0,-5.302l-2.841,2.841l-1.496,1.497l-1.497,-1.497l-0,0Z" style="fill:#4d4d4d;fill-rule:nonzero;"/></svg>