<svg viewBox="0 0 24 24" xmlns="http://www.w3.org/2000/svg" xml:space="preserve" style="fill-rule:evenodd;clip-rule:evenodd;stroke-linejoin:round;stroke-miterlimit:2"><path d="M4.379 2.304c-.225.242-.354.614-.354 1.097v17.192c0 .483.129.855.363 1.089l.061.051 9.633-9.633v-.217L4.44 2.252l-.061.052Z" style="fill:#3bccff"/><path d="m17.286 15.324-3.213-3.215v-.224l3.215-3.215.069.043 3.801 2.161c1.089.613 1.089 1.624 0 2.246l-3.801 2.16-.071.044Z" style="fill:#ffd400"/><path d="m17.356 15.28-3.283-3.283-9.694 9.694c.354.38.95.423 1.616.052l11.361-6.463" style="fill:#f33"/><path d="M17.356 8.714 5.995 2.261c-.665-.381-1.262-.329-1.616.051l9.693 9.685 3.284-3.283Z" style="fill:#48ff48"/></svg>