<svg viewBox="0 0 24 24" xmlns="http://www.w3.org/2000/svg" clip-rule="evenodd" stroke-linejoin="round" stroke-miterlimit="2" fill="#fff"><path d="M13.26 17.036c-.624-1.228-1.355-2.468-2.783-2.468-.272 0-.544.046-.795.16l-.485-.971c.591-.506 1.545-.909 2.773-.909 1.91 0 2.889.92 3.666 2.094.462-1.002.682-2.355.682-4.034 0-4.188-1.311-6.339-4.371-6.339-3.015 0-4.318 2.151-4.318 6.339 0 4.168 1.303 6.297 4.318 6.297a4.68 4.68 0 001.313-.169zm.748 1.461a7.994 7.994 0 01-2.061.276C7.932 18.773 4 15.568 4 10.908 4 6.205 7.932 3 11.947 3c4.083 0 7.977 3.182 7.977 7.908 0 2.63-1.227 4.767-3.01 6.148.576.863 1.169 1.437 1.996 1.437.901 0 1.265-.697 1.325-1.243h1.174c.069.727-.295 3.75-3.576 3.75-1.986 0-3.038-1.152-3.825-2.503z"/></svg>