<svg viewBox="0 0 24 24"
  xmlns="http://www.w3.org/2000/svg" fill-rule="evenodd" clip-rule="evenodd" stroke-linejoin="round" stroke-miterlimit="2">
  <path d="M22 11.586a2.199 2.199 0 00-2.197-2.197c-.598 0-1.125.229-1.511.616-1.494-1.072-3.568-1.776-5.853-1.863l1.002-4.693 3.252.686A1.564 1.564 0 1018.256 2.5c-.614 0-1.141.352-1.388.879l-3.638-.774a.437.437 0 00-.298.053.434.434 0 00-.177.247l-1.107 5.237c-2.337.07-4.428.755-5.94 1.863a2.213 2.213 0 00-1.511-.616A2.199 2.199 0 002 11.586c0 .897.527 1.652 1.301 2.004a4.014 4.014 0 00-.053.667c0 3.375 3.919 6.098 8.769 6.098 4.851 0 8.77-2.723 8.77-6.098 0-.228-.017-.439-.052-.65A2.274 2.274 0 0022 11.586zM6.974 13.15c0-.861.702-1.564 1.564-1.564.861 0 1.564.703 1.564 1.564 0 .862-.703 1.565-1.564 1.565a1.567 1.567 0 01-1.564-1.565zm8.734 4.13c-1.072 1.073-3.111 1.143-3.708 1.143s-2.654-.088-3.708-1.143a.414.414 0 010-.58.414.414 0 01.58 0c.667.668 2.109.915 3.145.915 1.038 0 2.461-.247 3.147-.915a.414.414 0 01.58 0 .454.454 0 01-.036.58zm-.281-2.565a1.567 1.567 0 01-1.564-1.565c0-.861.702-1.564 1.564-1.564.861 0 1.564.703 1.564 1.564 0 .862-.703 1.565-1.564 1.565z" fill="#fff" fill-rule="nonzero"/>
</svg>