<svg viewBox="0 0 24 24" xmlns="http://www.w3.org/2000/svg" xml:space="preserve" style="fill-rule:evenodd;clip-rule:evenodd;stroke-linecap:round;stroke-linejoin:round;stroke-miterlimit:2"><path style="fill:none" d="M0 0h24v24H0z"/><path d="M5.43 4.93A9.969 9.969 0 0 1 12.5 2c5.519 0 10 4.481 10 10 0 2.76-1.12 5.26-2.93 7.07l.001.001-.003.001A9.97 9.97 0 0 1 12.5 22a9.835 9.835 0 0 1-5.005-1.354l-4.187.546.546-4.187A9.835 9.835 0 0 1 2.5 12a9.97 9.97 0 0 1 2.928-7.068l.001-.003.001.001Z" style="fill:none;stroke:#fff;stroke-width:2.86px" transform="matrix(.7 0 0 .7 3.75 3.6)"/><path d="M5.43 4.93A9.969 9.969 0 0 1 12.5 2c5.519 0 10 4.481 10 10 0 2.76-1.12 5.26-2.93 7.07l.001.001-.003.001A9.97 9.97 0 0 1 12.5 22a9.835 9.835 0 0 1-5.005-1.354l-4.187.546.546-4.187A9.835 9.835 0 0 1 2.5 12a9.97 9.97 0 0 1 2.928-7.068l.001-.003.001.001Z" style="fill:none;stroke:#fff;stroke-width:.91px;stroke-dasharray:2.73,2.73,0,0;stroke-dashoffset:1.82" transform="matrix(1.1 0 0 1.1 -1.25 -1.2)"/></svg>