<svg viewBox="0 0 24 24" xmlns="http://www.w3.org/2000/svg" xml:space="preserve" style="fill-rule:evenodd;clip-rule:evenodd;stroke-linejoin:round;stroke-miterlimit:2">
	<path d="M32.771 81.653c0-9.075 8.571-13.36 18.402-13.36 10.336 0 19.159 4.537 23.696 14.369l22.94-12.857c-8.823-16.637-25.965-26.216-46.636-26.216-25.712 0-46.131 14.873-46.131 38.569 0 45.123 67.81 32.518 67.81 54.954 0 10.083-9.327 14.117-21.427 14.117-13.864 0-23.948-6.807-27.981-18.15L0 146.691c8.067 18.15 26.217 29.494 51.425 29.494 27.225 0 49.157-13.613 49.157-38.821 0-46.636-67.811-32.771-67.811-55.711Z" style="fill:#fff;fill-rule:nonzero" transform="translate(5 .398) scale(.10558)" />
	<circle cx="432.621" cy="159.17" r="17.356" style="fill:#fcf10c" transform="translate(-25.323 .95) scale(.1016)" />
</svg>
