<svg viewBox="0 0 24 24" xmlns="http://www.w3.org/2000/svg" xml:space="preserve" style="fill-rule:evenodd;clip-rule:evenodd;stroke-linecap:round;stroke-linejoin:round;stroke-miterlimit:2"><path style="fill:none" d="M0 0h24v24H0z"/><path d="M3.177 10.218A4.963 4.963 0 0 1 2 7c0-2.76 2.24-5 5-5 1.226 0 2.35.442 3.218 1.177A9.02 9.02 0 0 1 12 3c4.967 0 9 4.033 9 9a9.02 9.02 0 0 1-.177 1.782A4.963 4.963 0 0 1 22 17c0 2.76-2.24 5-5 5a4.963 4.963 0 0 1-3.218-1.177A9.02 9.02 0 0 1 12 21c-4.967 0-9-4.033-9-9 0-.61.061-1.206.177-1.782Z" style="fill:none;stroke:#fff;stroke-width:2px"/><path d="M139 65.25s-6-2-6 2c0 3 6 1 6 4 0 4-6 2-6 2" style="fill:none;stroke:#fff;stroke-width:2px" transform="translate(-124 -57.25)"/></svg>