<svg viewBox="0 0 24 24" xmlns="http://www.w3.org/2000/svg" xml:space="preserve" style="fill-rule:evenodd;clip-rule:evenodd;stroke-linecap:round;stroke-linejoin:round;stroke-miterlimit:2"><path style="fill:none" d="M0 0h24v24H0z"/><path d="M75.3 61c.477 0 .935.171 1.273.476.337.305.527.718.527 1.149v8.125c0 .897-.806 1.625-1.8 1.625h-8.975a9.7 9.7 0 0 0-4.992 1.365L60.9 74V62.625c0-.431.19-.844.527-1.149A1.904 1.904 0 0 1 62.7 61h12.6Z" style="fill:none;stroke:#fff;stroke-width:1.71px" transform="matrix(1.11111 0 0 1.23077 -64.667 -71.077)"/><path d="M36 13h4" style="fill:none;stroke:#fff;stroke-width:2px;stroke-linejoin:miter" transform="translate(-28)"/><path d="M36 9h8" style="fill:none;stroke:#fff;stroke-width:2px" transform="translate(-28)"/></svg>