<svg viewBox="0 0 24 24" xmlns="http://www.w3.org/2000/svg" fill-rule="evenodd" clip-rule="evenodd" stroke-linejoin="round"><path d="M20.744 16.732c-3.156-1.528-3.659-3.887-3.681-4.062-.027-.212-.058-.378.176-.594.225-.208 1.225-.827 1.503-1.021.459-.321.661-.641.512-1.035-.104-.272-.358-.375-.625-.375-.084.001-.168.01-.25.028-.504.11-.994.362-1.277.431a.52.52 0 01-.104.014c-.151 0-.209-.068-.194-.249.035-.551.11-1.627.023-2.631-.119-1.382-.565-2.067-1.093-2.672C15.478 4.272 14.291 3.01 12 3.01S8.523 4.272 8.269 4.562c-.53.606-.975 1.29-1.094 2.672-.087 1.005-.008 2.08.024 2.631.01.173-.043.249-.194.249a.457.457 0 01-.104-.014c-.283-.068-.772-.321-1.276-.43a1.11 1.11 0 00-.251-.028c-.268 0-.52.104-.625.375-.149.393.052.713.513 1.034.277.194 1.278.813 1.503 1.021.233.216.203.383.176.594-.022.178-.526 2.537-3.681 4.062-.185.09-.5.279.055.585.87.481 1.45.43 1.9.72.383.246.157.777.435.969.341.236 1.351-.017 2.655.414 1.094.36 1.758 1.378 3.697 1.378 1.94 0 2.623-1.022 3.698-1.378 1.301-.431 2.313-.178 2.655-.414.278-.192.052-.723.434-.969.451-.29 1.03-.239 1.901-.72.554-.302.239-.492.054-.581z" fill="#fff" fill-rule="nonzero"/><path d="M6.145 8.775a14.229 14.229 0 01.034-1.626c.144-1.68.693-2.509 1.338-3.246C7.823 3.554 9.241 2.01 12 2.01c2.76 0 4.18 1.545 4.487 1.898.642.736 1.192 1.565 1.337 3.244.047.551.05 1.123.036 1.626.098-.031.199-.058.3-.08.153-.035.309-.052.469-.053.682 0 1.293.322 1.56 1.021.307.81.07 1.549-.875 2.209-.211.147-.879.555-1.226.803.145.478.812 2.05 3.092 3.154.222.107.482.299.623.51.15.224.218.476.195.749-.024.268-.134.72-.825 1.098a5.57 5.57 0 01-1.331.521c-.123.033-.235.053-.337.085a2.614 2.614 0 01-.068.319 1.303 1.303 0 01-.514.711c-.213.147-.537.257-.978.287-.441.03-1.124-.014-1.931.253-.36.119-.661.339-1.005.546-.742.448-1.603.883-3.007.883-1.185 0-1.98-.311-2.647-.677-.488-.268-.873-.59-1.363-.751-.809-.268-1.493-.224-1.932-.254-.442-.03-.766-.14-.978-.287a1.31 1.31 0 01-.515-.711 2.834 2.834 0 01-.067-.319c-.102-.032-.215-.052-.337-.085a5.57 5.57 0 01-1.331-.521c-.691-.381-.802-.832-.825-1.1a1.133 1.133 0 01.193-.748c.141-.212.402-.405.624-.513 2.281-1.103 2.947-2.675 3.092-3.154-.346-.247-1.015-.655-1.226-.802-.947-.661-1.182-1.399-.874-2.214.266-.692.874-1.016 1.561-1.016.157 0 .313.018.46.05.104.023.207.051.308.083zm14.599 7.957c-3.156-1.528-3.659-3.887-3.681-4.062-.027-.212-.058-.378.176-.594.225-.208 1.225-.827 1.503-1.021.459-.321.661-.641.512-1.035-.104-.272-.358-.375-.625-.375-.084.001-.168.01-.25.028-.504.11-.994.362-1.277.431a.52.52 0 01-.104.014c-.151 0-.209-.068-.194-.249.035-.551.11-1.627.023-2.631-.119-1.382-.565-2.067-1.093-2.672C15.478 4.272 14.291 3.01 12 3.01S8.523 4.272 8.269 4.562c-.53.606-.975 1.29-1.094 2.672-.087 1.005-.008 2.08.024 2.631.01.173-.043.249-.194.249a.457.457 0 01-.104-.014c-.283-.068-.772-.321-1.276-.43a1.11 1.11 0 00-.251-.028c-.268 0-.52.104-.625.375-.149.393.052.713.513 1.034.277.194 1.278.813 1.503 1.021.233.216.203.383.176.594-.022.178-.526 2.537-3.681 4.062-.185.09-.5.279.055.585.87.481 1.45.43 1.9.72.383.246.157.777.435.969.341.236 1.351-.017 2.655.414 1.094.36 1.758 1.378 3.697 1.378 1.94 0 2.623-1.022 3.698-1.378 1.301-.431 2.313-.178 2.655-.414.278-.192.052-.723.434-.969.451-.29 1.03-.239 1.901-.72.554-.302.239-.492.054-.581z"/></svg>