<svg viewBox="0 0 24 24" xmlns="http://www.w3.org/2000/svg" clip-rule="evenodd" stroke-linejoin="round" stroke-miterlimit="2" fill="#fff"><path d="M.272 12.233c-.051 0-.09.039-.096.094L0 13.66l.176 1.311c.006.055.045.093.096.093.049 0 .088-.038.096-.093l.208-1.311-.208-1.333c-.008-.055-.047-.094-.096-.094zm.987-.728c-.009-.057-.049-.097-.099-.097-.053 0-.094.041-.101.097L.824 13.66l.235 2.108c.007.057.048.098.101.098.05 0 .09-.041.099-.097l.267-2.109-.267-2.155zm3.718-1.988a.184.184 0 00-.181.18l-.189 3.966.189 2.562c.004.1.084.179.181.179.096 0 .175-.08.182-.179l.213-2.562-.213-3.966a.188.188 0 00-.182-.18zm-1.925 1.379a.142.142 0 00-.14.137L2.7 13.661l.212 2.542c.005.08.066.138.14.138.073 0 .133-.058.141-.138l.24-2.542-.24-2.628c-.008-.078-.068-.137-.141-.137zm3.881 5.508c.12 0 .217-.096.221-.221l.186-2.519-.186-5.28a.224.224 0 00-.221-.221.225.225 0 00-.224.221l-.162 5.279.162 2.521c.003.123.103.22.224.22zm4.002.012a.31.31 0 00.305-.304v.003-.003l.128-2.447-.128-6.097a.31.31 0 00-.305-.304.308.308 0 00-.304.304l-.116 6.095.116 2.452c.002.165.14.301.304.301zm-2.017-.01c.144 0 .26-.115.264-.263v.002l.156-2.481-.157-5.317a.264.264 0 00-.527 0l-.138 5.317.138 2.481a.265.265 0 00.264.261zm-4.908-.023a.166.166 0 00.162-.158l.225-2.564-.225-2.438a.165.165 0 00-.162-.158.162.162 0 00-.16.159l-.2 2.437.2 2.564c.005.09.074.158.16.158zm-1.909-.14c.063 0 .115-.05.121-.118l.254-2.465-.254-2.557c-.006-.068-.058-.118-.121-.118-.062 0-.112.05-.12.118l-.224 2.557.224 2.465c.007.068.058.118.12.118zm7.822-7.985a.284.284 0 00-.285.283l-.126 5.124.126 2.465a.285.285 0 00.57-.001v.001l.14-2.465-.14-5.125a.286.286 0 00-.285-.282zm-3.972 8.151a.206.206 0 00.202-.2l.197-2.546-.197-4.872a.206.206 0 00-.202-.2.204.204 0 00-.203.2l-.176 4.872.176 2.548c.004.11.094.198.203.198zm2.212-.241v-.001l.17-2.503-.17-5.457a.243.243 0 00-.242-.242.244.244 0 00-.243.242l-.152 5.457.153 2.504a.242.242 0 00.484-.001v.001zm12.885-5.651c-.405 0-.79.083-1.141.23a5.21 5.21 0 00-7.077-4.395c-.221.087-.281.176-.285.347v9.37a.359.359 0 00.32.349l8.183.005a2.952 2.952 0 000-5.906zm-9.105-3.826a.328.328 0 00-.326.325l-.133 6.651.134 2.413a.325.325 0 00.325.321.327.327 0 00.324-.324v.003l.145-2.413-.145-6.652a.327.327 0 00-.324-.324z"/></svg>