<svg viewBox="0 0 24 24" xmlns="http://www.w3.org/2000/svg" fill-rule="evenodd" clip-rule="evenodd" stroke-linejoin="round" stroke-miterlimit="2"><path d="M17.916 10.866C14.692 8.951 9.374 8.774 6.298 9.709a.935.935 0 01-.544-1.79c3.533-1.072 9.405-.866 13.116 1.338a.935.935 0 01-.954 1.609zM17.81 13.7a.78.78 0 01-1.072.258c-2.688-1.652-6.786-2.131-9.965-1.166A.78.78 0 116.32 11.3c3.631-1.102 8.147-.568 11.233 1.329a.778.778 0 01.257 1.071zm-1.223 2.723a.624.624 0 01-.858.208c-2.348-1.435-5.303-1.76-8.785-.964a.624.624 0 01-.277-1.215c3.809-.871 7.076-.496 9.712 1.115a.623.623 0 01.208.856zM12 2C6.478 2 2 6.477 2 12s4.478 10 10 10c5.523 0 10-4.477 10-10S17.523 2 12 2z" fill="#fff" fill-rule="nonzero"/></svg>