<svg viewBox="0 0 24 24" xmlns="http://www.w3.org/2000/svg" xml:space="preserve" style="fill-rule:evenodd;clip-rule:evenodd;stroke-linecap:round;stroke-linejoin:round;stroke-miterlimit:2"><path style="fill:none" d="M0 0h24v24H0z"/><path d="m59 37 .721-4.329A2.001 2.001 0 0 1 61.694 31h12.612c.977 0 1.812.707 1.973 1.671L77 37" style="fill:none;stroke:#fff;stroke-width:2px" transform="translate(-56 -28)"/><path d="M71 39a2 2 0 0 1-4 0" style="fill:none;stroke:#fff;stroke-width:1.33px" transform="matrix(1.5 0 0 1.5 -85.5 -49.5)"/><path d="M71 39a2 2 0 0 1-4 0" style="fill:none;stroke:#fff;stroke-width:1.33px" transform="matrix(1.5 0 0 1.5 -91.5 -49.5)"/><path d="M71 39a2 2 0 0 1-4 0" style="fill:none;stroke:#fff;stroke-width:1.33px" transform="matrix(1.5 0 0 1.5 -97.5 -49.5)"/><path d="M61 39.235V47c0 .53.184 1.039.513 1.414.328.375.773.586 1.237.586h10.5c.464 0 .909-.211 1.237-.586A2.15 2.15 0 0 0 75 47v-7.765" style="fill:none;stroke:#fff;stroke-width:1.86px" transform="matrix(1.14286 0 0 1 -65.714 -28)"/></svg>