<svg viewBox="0 0 24 24"
  xmlns="http://www.w3.org/2000/svg" fill-rule="evenodd" clip-rule="evenodd" stroke-linejoin="round" stroke-miterlimit="2">
  <path d="M5.671 14.738L.989 12.787a1.399 1.399 0 01-.013-2.579L20.222 1.96a1.498 1.498 0 012.058 1.688l-3.483 16.547a2.001 2.001 0 01-3.134 1.206l-3.56-2.59-2.415 2.415a1.4 1.4 0 01-2.336-.605l-1.681-5.883zm3.319 4.338l.005.015 2.902-2.902 4.943 3.594 3.285-15.606-17.056 7.31 4.183 1.743 10.106-6.22a.2.2 0 01.242.316L9.5 15l-.51 4.076z" fill="#fff"/>
</svg>