<?xml version="1.0" encoding="UTF-8" standalone="no"?>
<!DOCTYPE svg PUBLIC "-//W3C//DTD SVG 1.1//EN" "http://www.w3.org/Graphics/SVG/1.1/DTD/svg11.dtd">
<svg width="100%" height="100%" viewBox="0 0 24 24" version="1.1" xmlns="http://www.w3.org/2000/svg" xmlns:xlink="http://www.w3.org/1999/xlink" xml:space="preserve" xmlns:serif="http://www.serif.com/" style="fill-rule:evenodd;clip-rule:evenodd;stroke-linejoin:round;stroke-miterlimit:2;">
    <g transform="matrix(0.02,0,0,0.02,3.221,2)">
        <path d="M447,1000L446.4,1000C297.2,999 182.5,949.8 105.4,853.8C36.9,768.3 1.5,649.4 0.3,500.4L0.3,499.7C1.5,350.6 36.9,231.8 105.5,146.3C182.5,50.2 297.3,1 446.4,0L447,0C561.4,0.8 657.1,30.2 731.4,87.4C801.3,141.2 850.5,217.8 877.6,315.2L792.6,338.9C746.6,173.9 630.2,89.6 446.6,88.3C325.4,89.2 233.7,127.3 174.1,201.5C118.4,271 89.6,371.4 88.5,500C89.6,628.6 118.4,729 174.2,798.5C233.8,872.8 325.5,910.9 446.7,911.7C556,910.9 628.3,885.4 688.4,826.5C757,759.3 755.8,676.8 733.8,626.6C720.9,597 697.4,572.4 665.7,553.7C657.7,610 639.8,655.6 612.2,690C575.3,735.9 523,761 456.8,764.6C406.7,767.3 358.4,755.5 321,731.2C276.7,702.5 250.8,658.7 248,607.7C245.3,558.1 265,512.5 303.4,479.3C340.1,447.6 391.7,429 452.7,425.5C497.6,423 539.7,425 578.5,431.4C573.3,400.5 562.9,375.9 547.3,358.2C525.9,333.8 492.8,321.4 449,321.1L447.8,321.1C412.6,321.1 364.8,330.8 334.4,376.1L261.2,327C302,266.4 368.2,233 447.8,233L449.6,233C582.7,233.8 662,315.3 669.9,457.5C674.4,459.4 678.9,461.4 683.3,463.4C745.4,492.6 790.8,536.8 814.7,591.3C847.9,667.2 851,790.9 750.2,889.6C673.1,965 579.6,999.1 447,1000ZM488.5,512.9C478.4,512.9 468.2,513.2 457.7,513.8C381.2,518.1 333.5,553.2 336.2,603.1C339,655.4 396.7,679.7 452.2,676.7C503.2,674 569.6,654.1 580.8,522.1C552.6,516 521.7,512.9 488.5,512.9Z" style="fill:#fff;fill-rule:nonzero;"/>
    </g>
</svg>
