<svg xmlns="http://www.w3.org/2000/svg" xml:space="preserve" viewBox="0 0 24 24"><path fill="#ff004f" d="M16.27 9.22a7.86 7.86 0 0 0 4.58 1.47V7.4a4.64 4.64 0 0 1-.96-.1v2.59a7.86 7.86 0 0 1-4.58-1.47v6.7a6.08 6.08 0 0 1-6.08 6.08 6.05 6.05 0 0 1-3.39-1.03A6.06 6.06 0 0 0 10.2 22a6.08 6.08 0 0 0 6.08-6.07V9.22Zm1.19-3.32a4.58 4.58 0 0 1-1.2-2.68V2.8h-.9a4.6 4.6 0 0 0 2.1 3.1zm-9.5 11.7a2.78 2.78 0 0 1 3.06-4.33V9.9a6.13 6.13 0 0 0-.96-.06v2.62a2.78 2.78 0 0 0-3.62 2.65c0 1.08.62 2.02 1.53 2.48z"/><path d="M15.3 8.42a7.86 7.86 0 0 0 4.59 1.47v-2.6a4.6 4.6 0 0 1-2.44-1.39 4.6 4.6 0 0 1-2.1-3.1h-2.39v13.13a2.78 2.78 0 0 1-5 1.67 2.78 2.78 0 0 1 2.1-5.13V9.85a6.08 6.08 0 0 0-4.21 10.32 6.05 6.05 0 0 0 3.38 1.03 6.08 6.08 0 0 0 6.07-6.07V8.42Z"/><path fill="#00f2ea" d="M19.89 7.3v-.7a4.58 4.58 0 0 1-2.44-.7 4.6 4.6 0 0 0 2.44 1.4zm-4.53-4.5a4.69 4.69 0 0 1-.05-.38V2H12v13.13a2.78 2.78 0 0 1-4.03 2.47 2.78 2.78 0 0 0 5-1.68V2.8Zm-5.3 7.05v-.74a6.08 6.08 0 0 0-4.21 11.06 6.08 6.08 0 0 1 4.21-10.32z"/></svg>