<svg viewBox="0 0 24 24" xmlns="http://www.w3.org/2000/svg" xml:space="preserve" style="fill-rule:evenodd;clip-rule:evenodd;stroke-linecap:round;stroke-linejoin:round;stroke-miterlimit:1.5"><path style="fill:none" d="M0 0h24v24H0z"/><path d="M16.5 16c-4.415 0-8-3.585-8-8" style="fill:none;stroke:#fff;stroke-width:2px" transform="translate(-1.5)"/><path d="M192 30c8.889 0 11.111 2.222 11.111 10 0 7.778-2.222 10-11.111 10l-4.444 2.148v-2.422c-5.332-.995-6.667-3.698-6.667-9.726 0-7.778 2.222-10 11.111-10Z" style="fill:none;stroke:#fff;stroke-width:2.22px;stroke-miterlimit:2" transform="matrix(.9 0 0 .9 -160.8 -25)"/><path d="M193 40.732a1.999 1.999 0 0 0 0-3.464" style="fill:none;stroke:#fff;stroke-width:1px;stroke-miterlimit:2" transform="rotate(-45 68.2 242.28)"/><path d="M193 40.732a1.999 1.999 0 0 0 0-3.464" style="fill:none;stroke:#fff;stroke-width:.4px;stroke-miterlimit:2" transform="scale(2.5) rotate(-45 56.634 247.67)"/></svg>