<svg viewBox="0 0 24 24" xmlns="http://www.w3.org/2000/svg" xml:space="preserve" style="fill-rule:evenodd;clip-rule:evenodd;stroke-linecap:round;stroke-linejoin:round;stroke-miterlimit:2"><path style="fill:none" d="M0 0h24v24H0z"/><path d="M96 20c-.734 0-1.45-.071-2.138-.207L90 22v-3.801c-2.428-1.643-4-4.257-4-7.199 0-4.967 4.481-9 10-9s10 4.033 10 9c0 .461-.039.913-.113 1.356" style="fill:none;stroke:#fff;stroke-width:2.5px" transform="matrix(.8 0 0 .8 -66.8 .4)"/><path d="M90 18.199c-2.428-1.643-4-4.257-4-7.199 0-4.967 4.481-9 10-9s10 4.033 10 9-4.481 9-10 9c-.734 0-1.45-.071-2.138-.207L90 22v-3.801Z" style="fill:none;stroke:#fff;stroke-width:3.33px" transform="matrix(-.6 0 0 .6 73.6 8.8)"/><circle cx="131" cy="36" r="1" style="fill:#fff" transform="translate(-124 -29)"/><circle cx="131" cy="36" r="1" style="fill:#fff" transform="translate(-118 -29)"/><circle cx="131" cy="36" r="1" style="fill:#fff" transform="translate(-117 -22)"/><circle cx="131" cy="36" r="1" style="fill:#fff" transform="translate(-113 -22)"/></svg>