<svg viewBox="0 0 24 24"
  xmlns="http://www.w3.org/2000/svg" fill-rule="evenodd" clip-rule="evenodd" stroke-linejoin="round" stroke-miterlimit="2" fill="#fff">
  <path d="M2.841 16.664A10.987 10.987 0 014.776 3.725c4.297-4.297 11.273-4.297 15.57 0 4.297 4.297 4.297 11.273 0 15.57-3.522 3.522-8.845 4.157-13.018 1.904l-4.142.784a1.002 1.002 0 01-1.167-1.178l.822-4.141zm1.428 3.078l3.045-.576c.238-.045.483-.002.692.12 3.452 2.024 7.966 1.555 10.926-1.405 3.516-3.516 3.516-9.226 0-12.742s-9.226-3.516-12.742 0a8.992 8.992 0 00-1.432 10.86 1 1 0 01.116.696l-.605 3.047z"/>
  <path d="M17.5 14.002v1.512a1.01 1.01 0 01-1.006 1.006c-.03 0-.06-.002-.09-.004a9.948 9.948 0 01-4.34-1.544 9.811 9.811 0 01-3.016-3.017 9.944 9.944 0 01-1.544-4.359A1.01 1.01 0 018.505 6.5h1.508a1.01 1.01 0 011.006.865c.063.483.181.957.352 1.413.137.367.049.782-.227 1.061l-.638.638a8.039 8.039 0 003.017 3.017l.638-.639a1.008 1.008 0 011.061-.226c.456.17.93.288 1.413.352.503.071.877.513.865 1.021z" fill-rule="nonzero"/>
</svg>