<?xml version="1.0" encoding="UTF-8" standalone="no"?><!DOCTYPE svg PUBLIC "-//W3C//DTD SVG 1.1//EN" "http://www.w3.org/Graphics/SVG/1.1/DTD/svg11.dtd"><svg width="100%" height="100%" viewBox="0 0 24 24" version="1.1" xmlns="http://www.w3.org/2000/svg" xmlns:xlink="http://www.w3.org/1999/xlink" xml:space="preserve" xmlns:serif="http://www.serif.com/" style="fill-rule:evenodd;clip-rule:evenodd;stroke-linejoin:round;stroke-miterlimit:2;"><path d="M7.778,17.504c-1.33,0.602 -2.321,0.785 -2.321,0.785c-0.474,0.086 -0.822,0.502 -0.822,0.984c0,0.549 0.452,1 1,1c0,0 0.001,0 0.001,0c1.781,0 3.498,-0.332 5.113,-0.91c-1.041,-0.534 -2.035,-1.156 -2.971,-1.859Zm10.586,2.769c0,0 0.001,0 0.001,0c0.548,0 1,-0.451 1,-1c-0,-0.482 -0.348,-0.898 -0.822,-0.984c-0.474,-0.086 -9.179,-1.698 -9.179,-11.744c-0,-0.445 -0.298,-0.839 -0.726,-0.961l-6.363,-1.818c-0.089,-0.026 -0.182,-0.039 -0.275,-0.039c-0.548,0 -1,0.452 -1,1c-0,2.294 1.216,5.285 3.353,8.028c3.141,4.029 8.238,7.518 14.011,7.518Zm-5.732,-6.729c1.168,-1.694 2.004,-3.966 2.004,-6.999c0,-0.445 0.298,-0.839 0.726,-0.961l6.363,-1.818c0.089,-0.026 0.182,-0.039 0.275,-0.039c0.548,0 1,0.452 1,1c-0,2.294 -1.216,5.285 -3.353,8.028c-1.037,1.328 -2.226,2.53 -3.543,3.581c-0.63,-0.324 -1.229,-0.706 -1.789,-1.14c1.411,-1.049 2.674,-2.284 3.754,-3.671c1.417,-1.817 2.404,-3.742 2.772,-5.427l-4.22,1.206c-0.136,3.336 -1.167,5.837 -2.542,7.703c-0.531,-0.437 -1.016,-0.927 -1.447,-1.463Zm-2.066,2.265c-1.769,-1.164 -3.335,-2.612 -4.635,-4.284c-1.417,-1.817 -2.404,-3.742 -2.772,-5.427l4.22,1.206c0.157,3.837 1.496,6.569 3.183,8.501l0.004,0.004Z" style="fill:#fff;"/></svg>