<svg xmlns="http://www.w3.org/2000/svg" width="24" height="24" fill="#af0606"><path d="M19.589 17.194c-.111.801-1.758 2.893-2.514 3.204a.7.7 0 0 1-.712-.078c-.134-.111-.267-.3-2.047-3.193l-.523-.856c-.2-.312-.167-.712.089-1.024.245-.3.612-.411.923-.29l1.335.446c2.982.979 3.082 1.012 3.215 1.112.19.156.278.39.234.668zM13.604 12.8c-.223-.323-.212-.701 0-.968l.834-1.135c1.836-2.48 1.936-2.614 2.058-2.703.212-.134.468-.145.723-.023.723.356 2.18 2.526 2.27 3.36v.022a.69.69 0 0 1-.278.668c-.145.078-.267.133-3.671.957l-1.002.267.023-.023c-.334.112-.712-.055-.935-.4zm-2.092-1.29c-.155.055-.656.2-1.268-.78 0 0-4.105-6.463-4.205-6.674a.723.723 0 0 1 .222-.668c.601-.645 3.927-1.569 4.784-1.357.29.067.49.256.556.5.056.279.445 6.286.512 7.632.056 1.146-.445 1.302-.6 1.346zm.545 6.574c0 3.148-.01 3.26-.066 3.404a.712.712 0 0 1-.568.445c-.8.134-3.304-.79-3.827-1.413a.823.823 0 0 1-.178-.411.556.556 0 0 1 .034-.29c.066-.155.155-.289 2.403-2.925l.667-.78c.223-.288.623-.377 1.001-.222.356.134.579.445.557.78v1.4zm-6.82-2.002a.7.7 0 0 1-.6-.4 2.681 2.681 0 0 1-.2-.846c-.111-1.08.033-2.715.356-3.227.156-.244.378-.367.623-.367.156 0 .3.056 3.526 1.38l.935.378c.334.111.556.467.534.868-.033.39-.256.69-.59.778l-1.335.423c-2.992.968-3.092 1.001-3.248.98ZM17.72 22Z" style="stroke-width:1.11249"/></svg>