<?xml version="1.0" encoding="UTF-8" standalone="no"?>
<svg
   xmlns:dc="http://purl.org/dc/elements/1.1/"
   xmlns:cc="http://creativecommons.org/ns#"
   xmlns:rdf="http://www.w3.org/1999/02/22-rdf-syntax-ns#"
   xmlns:svg="http://www.w3.org/2000/svg"
   xmlns="http://www.w3.org/2000/svg"
   xmlns:sodipodi="http://sodipodi.sourceforge.net/DTD/sodipodi-0.dtd"
   xmlns:inkscape="http://www.inkscape.org/namespaces/inkscape"
   width="24"
   height="24"
   fill="#af0606"
   version="1.1"
   id="svg4"
   sodipodi:docname="yelp.svg"
   inkscape:version="1.0.1 (3bc2e813f5, 2020-09-07)">
  <metadata
     id="metadata10">
    <rdf:RDF>
      <cc:Work
         rdf:about="">
        <dc:format>image/svg+xml</dc:format>
        <dc:type
           rdf:resource="http://purl.org/dc/dcmitype/StillImage" />
      </cc:Work>
    </rdf:RDF>
  </metadata>
  <defs
     id="defs8" />
  <sodipodi:namedview
     pagecolor="#ffffff"
     bordercolor="#666666"
     borderopacity="1"
     objecttolerance="10"
     gridtolerance="10"
     guidetolerance="10"
     inkscape:pageopacity="0"
     inkscape:pageshadow="2"
     inkscape:window-width="1920"
     inkscape:window-height="1051"
     id="namedview6"
     showgrid="false"
     inkscape:zoom="34.958333"
     inkscape:cx="12"
     inkscape:cy="12"
     inkscape:window-x="0"
     inkscape:window-y="0"
     inkscape:window-maximized="1"
     inkscape:current-layer="svg4" />
  <path
     d="m 19.588982,17.194038 c -0.11125,0.800994 -1.757736,2.892477 -2.51423,3.203974 a 0.70086941,0.70086941 0 0 1 -0.711995,-0.07787 c -0.133499,-0.111249 -0.266998,-0.300373 -2.046983,-3.19285 l -0.522871,-0.856618 c -0.200249,-0.311497 -0.166874,-0.711994 0.089,-1.023492 0.244748,-0.300372 0.61187,-0.411621 0.923368,-0.289247 l 1.334989,0.444996 c 2.981476,0.978992 3.081601,1.012367 3.215099,1.112491 0.189124,0.155749 0.278123,0.389372 0.233624,0.667495 z m -5.985203,-4.39434 c -0.222498,-0.322622 -0.211373,-0.700869 0,-0.967867 l 0.834369,-1.134741 c 1.83561,-2.4808553 1.935734,-2.6143543 2.058108,-2.7033536 0.211374,-0.1334989 0.467247,-0.1446238 0.723119,-0.02225 0.72312,0.3559972 2.180483,2.5253546 2.269482,3.3597236 v 0.02225 a 0.6897445,0.6897445 0 0 1 -0.278122,0.667495 c -0.144624,0.07787 -0.266998,0.133499 -3.671221,0.956743 l -1.001242,0.266997 0.02225,-0.02225 c -0.333748,0.111249 -0.711995,-0.05562 -0.934493,-0.400497 z m -2.091483,-1.29049 c -0.155749,0.05562 -0.65637,0.200249 -1.26824,-0.778744 0,0 -4.1050923,-6.4635728 -4.2052165,-6.6749462 A 0.72311923,0.72311923 0 0 1 6.2613377,3.3880232 C 6.862083,2.7427783 10.188432,1.8194107 11.04505,2.030784 c 0.289247,0.066749 0.489496,0.2558729 0.556245,0.500621 0.05563,0.2781228 0.444997,6.2855749 0.511746,7.631689 0.05563,1.145866 -0.444996,1.301615 -0.600745,1.346114 z m 0.545121,6.574823 c 0,3.14835 -0.01112,3.259599 -0.06675,3.404223 a 0.71199432,0.71199432 0 0 1 -0.56737,0.444996 C 10.622303,22.066749 8.1191979,21.143381 7.5963271,20.520386 a 0.82324344,0.82324344 0 0 1 -0.1779986,-0.411621 0.55624557,0.55624557 0 0 1 0.033375,-0.289248 c 0.066749,-0.155749 0.1557487,-0.289248 2.4029804,-2.925852 l 0.6674951,-0.778743 c 0.222498,-0.289248 0.622995,-0.378247 1.001242,-0.222499 0.355997,0.133499 0.578495,0.444997 0.556245,0.778744 v 1.401739 z M 5.2378459,16.081547 A 0.70086941,0.70086941 0 0 1 4.6371007,15.68105 2.6811036,2.6811036 0 0 1 4.4368523,14.835557 c -0.1112491,-1.079117 0.033375,-2.714479 0.3559972,-3.226225 0.1557487,-0.244748 0.3782469,-0.367122 0.622995,-0.367122 0.1557487,0 0.3003726,0.05563 3.5265969,1.379489 l 0.9344925,0.378247 c 0.3337471,0.111249 0.5562461,0.467247 0.5339961,0.867743 -0.03337,0.389372 -0.255873,0.689745 -0.5896211,0.778744 L 8.48632,15.06918 C 5.4937189,16.037047 5.3935947,16.070422 5.2378459,16.048172 Z M 17.719996,22 Z"
     id="path2"
     style="stroke-width:1.11249" />
</svg>
